<?xml version="1.0" encoding="UTF-8"?>
<svg id="Layer_2" xmlns="http://www.w3.org/2000/svg" xmlns:xlink="http://www.w3.org/1999/xlink" viewBox="0 0 851.55 785.18">
  <defs>
    <style>
      .cls-1, .cls-2 {
        stroke: #333;
        stroke-linecap: round;
        stroke-miterlimit: 10;
        stroke-width: 10px;
      }

      .cls-1, .cls-3 {
        fill: none;
      }

      .cls-2 {
        fill: #494949;
      }

      .cls-4 {
        fill: #c1c6d3;
      }

      .cls-5 {
        clip-path: url(#clippath-1);
      }

      .cls-6 {
        fill: #d2d6db;
      }

      .cls-7 {
        fill: #e6e6e8;
        filter: url(#drop-shadow-1);
      }

      .cls-8 {
        clip-path: url(#clippath);
      }

      .cls-9 {
        fill: #e6e7e8;
      }
    </style>
    <clipPath id="clippath">
      <rect class="cls-3" width="851.55" height="785.18" rx="56.84" ry="56.84"/>
    </clipPath>
    <clipPath id="clippath-1">
      <rect class="cls-3" x="-8.55" y="-5.74" width="867.41" height="292.55"/>
    </clipPath>
    <filter id="drop-shadow-1" filterUnits="userSpaceOnUse">
      <feOffset dx="7" dy="7"/>
      <feGaussianBlur result="blur" stdDeviation="5"/>
      <feFlood floodColor="#cccaca" floodOpacity=".5"/>
      <feComposite in2="blur" operator="in"/>
      <feComposite in="SourceGraphic"/>
    </filter>
  </defs>
  <g id="Layer_1-2" data-name="Layer_1">
    <g>
      <g class="cls-8">
        <rect class="cls-9" x="-2.87" y="-2.33" width="857.18" height="787.51"/>
        <g class="cls-5">
          <rect class="cls-4" x="0" y="-1.83" width="284.53" height="271.35"/>
          <rect class="cls-4" x="569.05" y="-1.83" width="284.53" height="293.55"/>
          <rect class="cls-4" x="284.53" y="-1.83" width="284.53" height="271.35"/>
        </g>
        <path class="cls-7" d="M-1.35,264.72h819.59c19.07,0,34.53,15.46,34.53,34.53v374.09H-1.35"/>
        <path class="cls-6" d="M0,363.22h105.39c59.86,0,108.38,48.52,108.38,108.38h0c0,59.86-48.52,108.38-108.38,108.38H0"/>
      </g>
      <line class="cls-2" x1="756.35" y1="94.12" x2="657.26" y2="193.21"/>
      <line class="cls-2" x1="657.26" y1="94.12" x2="756.35" y2="193.21"/>
      <line class="cls-1" x1="73.63" y1="138.72" x2="213.77" y2="138.72"/>
      <rect class="cls-1" x="375.77" y="84.72" width="100.99" height="100.99" rx="5.6" ry="5.6"/>
      <circle class="cls-6" cx="447.77" cy="471.72" r="108"/>
      <circle class="cls-6" cx="713.27" cy="472.23" r="22.5"/>
      <circle class="cls-6" cx="713.27" cy="548.22" r="22.5"/>
      <circle class="cls-6" cx="713.27" cy="399.63" r="22.5"/>
    </g>
  </g>
</svg>