<?xml version="1.0" encoding="UTF-8"?>
<svg id="Layer_2" xmlns="http://www.w3.org/2000/svg" viewBox="0 0 232.55 245.86">
  <defs>
    <style>
      .cls-1 {
        fill: #5c8fff;
      }

      .cls-2 {
        fill: #d2d6db;
      }
    </style>
  </defs>
  <g id="Layer_1-2" data-name="Layer_1">
    <g>
      <g>
        <circle class="cls-2" cx="48.42" cy="238.5" r="7.36"/>
        <circle class="cls-2" cx="56.76" cy="213.06" r="9.32"/>
        <circle class="cls-2" cx="60.19" cy="182.71" r="12.26"/>
      </g>
      <g>
        <circle class="cls-2" cx="143.17" cy="57.7" r="57.7"/>
        <circle class="cls-2" cx="85.46" cy="57.7" r="57.7"/>
        <circle class="cls-2" cx="57.7" cy="100.8" r="57.7"/>
        <circle class="cls-2" cx="116.28" cy="100.8" r="57.7"/>
        <circle class="cls-2" cx="174.85" cy="100.8" r="57.7"/>
      </g>
      <g>
        <path class="cls-1" d="M42.57,74.46h-4.96v-2.84h13.17v2.84h-4.96v12.36h-3.24v-12.36Z"/>
        <path class="cls-1" d="M64.55,80.64h-8.11v6.18h-3.24v-15.2h3.24v6.18h8.11v-6.18h3.24v15.2h-3.24v-6.18Z"/>
        <path class="cls-1" d="M71.26,71.62h3.24v15.2h-3.24v-15.2Z"/>
        <path class="cls-1" d="M78.7,82.5c1.88,1.11,4.28,1.88,6.81,1.88,2.15,0,3.32-.59,3.32-1.36,0-2.13-10.82-2.03-10.82-7.38,0-2.65,2.55-4.44,7.01-4.44,4.13,0,6.52,1.99,6.52,1.99l-1.5,2.53c-1.2-.91-3.42-1.62-5.17-1.62-2.13,0-3.59.65-3.59,1.68,0,2.39,10.86,2.03,10.86,7.25,0,2.01-2.05,4.28-6.77,4.28s-7.82-1.95-7.82-1.95l1.13-2.88Z"/>
        <path class="cls-1" d="M102.31,71.62h3.24v15.2h-3.24v-15.2Z"/>
        <path class="cls-1" d="M109.75,82.5c1.88,1.11,4.28,1.88,6.81,1.88,2.15,0,3.32-.59,3.32-1.36,0-2.13-10.82-2.03-10.82-7.38,0-2.65,2.55-4.44,7.01-4.44,4.13,0,6.52,1.99,6.52,1.99l-1.5,2.53c-1.2-.91-3.42-1.62-5.17-1.62-2.13,0-3.59.65-3.59,1.68,0,2.39,10.86,2.03,10.86,7.25,0,2.01-2.05,4.28-6.77,4.28s-7.82-1.95-7.82-1.95l1.13-2.88Z"/>
        <path class="cls-1" d="M135.56,80.6c0,2.25.99,3.77,3.42,3.77s3.22-1.24,3.22-3.51v-9.24h3.24v8.98c0,4.03-1.82,6.63-6.57,6.63-4.15,0-6.46-2.47-6.57-6.63h3.24Z"/>
        <path class="cls-1" d="M148.7,71.62h3.24v9.4c0,2.41,1.72,3.36,3.51,3.36s3.5-.95,3.5-3.36v-9.4h3.24v8.98c0,4.28-2.49,6.63-6.85,6.63s-6.65-2.35-6.65-6.63v-8.98Z"/>
        <path class="cls-1" d="M166.19,82.5c1.88,1.11,4.28,1.88,6.81,1.88,2.15,0,3.32-.59,3.32-1.36,0-2.13-10.82-2.03-10.82-7.38,0-2.65,2.55-4.44,7.01-4.44,4.13,0,6.52,1.99,6.52,1.99l-1.5,2.53c-1.2-.91-3.42-1.62-5.17-1.62-2.13,0-3.59.65-3.59,1.68,0,2.39,10.86,2.03,10.86,7.25,0,2.01-2.05,4.28-6.77,4.28s-7.82-1.95-7.82-1.95l1.13-2.88Z"/>
        <path class="cls-1" d="M186.63,74.46h-4.96v-2.84h13.17v2.84h-4.96v12.36h-3.24v-12.36Z"/>
        <path class="cls-1" d="M38.39,95.94l2.74,10.94,2.61-10.94h3.38l2.61,10.94,2.74-10.94h3.49l-4.36,15.2h-3.63l-2.55-9.14-2.53,9.14h-3.63l-4.36-15.2h3.49Z"/>
        <path class="cls-1" d="M69.54,104.96h-8.11v6.18h-3.24v-15.2h3.24v6.18h8.11v-6.18h3.24v15.2h-3.24v-6.18Z"/>
        <path class="cls-1" d="M80.54,95.94h5.21l5.51,15.2h-3.45l-.99-2.96h-7.36l-.99,2.96h-3.45l5.51-15.2ZM85.93,105.55l-2.27-6.77h-1.03l-2.29,6.77h5.59Z"/>
        <path class="cls-1" d="M94.95,98.78h-4.96v-2.84h13.17v2.84h-4.96v12.36h-3.24v-12.36Z"/>
        <path class="cls-1" d="M112.91,95.94h3.24v15.2h-3.24v-15.2Z"/>
        <path class="cls-1" d="M126.71,95.94h3.24l7.7,10.17v-10.17h3.24v15.2h-3.24l-7.7-10.15v10.15h-3.24v-15.2Z"/>
        <path class="cls-1" d="M144.16,95.94h12.44v2.84h-9.2v3.34h8.27v2.84h-8.27v3.34h9.2v2.84h-12.44v-15.2Z"/>
        <path class="cls-1" d="M159.86,95.94h12.44v2.84h-9.2v3.34h8.27v2.84h-8.27v3.34h9.2v2.84h-12.44v-15.2Z"/>
        <path class="cls-1" d="M175.57,95.94h6.75c4.52,0,7.52,2.59,7.52,7.68s-3,7.52-7.52,7.52h-6.75v-15.2ZM178.81,98.78v9.52h4.01c2.03,0,3.77-1.56,3.77-4.8s-1.74-4.72-3.77-4.72h-4.01Z"/>
        <path class="cls-1" d="M194.62,107.69c1.16,0,1.91.73,1.91,1.82s-.75,1.8-1.91,1.8-1.9-.73-1.9-1.8.77-1.82,1.9-1.82Z"/>
        <path class="cls-1" d="M201.71,107.69c1.16,0,1.91.73,1.91,1.82s-.75,1.8-1.91,1.8-1.9-.73-1.9-1.8.77-1.82,1.9-1.82Z"/>
      </g>
    </g>
  </g>
</svg>