<?xml version="1.0" encoding="UTF-8"?>
<svg id="Layer_2" xmlns="http://www.w3.org/2000/svg" viewBox="0 0 128.26 55.89">
  <defs>
    <style>
      .cls-1 {
        fill: #f90;
      }

      .cls-2 {
        fill: #f7931e;
      }
    </style>
  </defs>
  <g id="Layer_1-2" data-name="Layer_1">
    <g>
      <path class="cls-1" d="M41.97,24.82c-13.18,1.26-26.35,2.52-39.53,3.78l1.77,4.27C13.5,23.75,22.04,13.99,29.92,3.64l-4.66-1.26c-.71,16.18-2.27,32.29-4.75,48.29-.49,3.15,4.33,4.5,4.82,1.33,2.54-16.45,4.2-32.99,4.93-49.62.12-2.74-3.3-3.05-4.66-1.26C17.99,11.13,9.65,20.52.68,29.33c-1.44,1.42-.45,4.48,1.77,4.27,13.18-1.26,26.35-2.52,39.53-3.78,3.18-.3,3.21-5.31,0-5h0Z"/>
      <path class="cls-1" d="M125.87,24.82c-13.18,1.26-26.35,2.52-39.53,3.78l1.77,4.27c9.29-9.11,17.83-18.87,25.71-29.22l-4.66-1.26c-.71,16.18-2.27,32.29-4.75,48.29-.49,3.15,4.33,4.5,4.82,1.33,2.54-16.45,4.2-32.99,4.93-49.62.12-2.74-3.3-3.05-4.66-1.26-7.61,10.01-15.95,19.4-24.93,28.21-1.44,1.42-.45,4.48,1.77,4.27,13.18-1.26,26.35-2.52,39.53-3.78,3.18-.3,3.21-5.31,0-5h0Z"/>
      <path class="cls-1" d="M80.77,33.68c.53-9.16-.7-21.8-8.37-28.01-4.28-3.47-10.46-3.69-15.42-1.5-5.21,2.31-7.11,7.47-8.19,12.71-2.31,11.25-5.6,34.37,9.59,38.42,13.7,3.65,21.35-10.16,22.38-21.61.29-3.2-4.71-3.18-5,0-.45,5.02-1.86,10.3-5.6,13.91-3.43,3.32-9.69,4.59-13.57,1.26-7.99-6.86-4.77-24.44-2.4-33.2,2.57-9.47,13.84-10.41,18.29-1.88,3.1,5.94,3.66,13.32,3.28,19.91-.19,3.21,4.81,3.2,5,0Z"/>
      <path class="cls-2" d="M61.48,40.32c.79-2.93,4.52-2.87,5.28.04.81,3.11,5.64,1.79,4.82-1.33-.88-3.35-3.9-5.97-7.44-5.98s-6.57,2.59-7.48,5.94c-.84,3.11,3.98,4.44,4.82,1.33h0Z"/>
      <path class="cls-2" d="M58.02,23.04c-.29.91-.37,1.86-.28,2.81.06.65.26,1.48.13,2.05-.28,1.32.39,2.7,1.75,3.08,1.25.34,2.79-.42,3.08-1.75.2-.93.23-1.8.12-2.74-.09-.74-.2-1.43.02-2.12.42-1.28-.49-2.73-1.75-3.08-1.35-.37-2.66.46-3.08,1.75h0Z"/>
      <path class="cls-2" d="M64.88,22.79c.03,1.7.17,3.39.2,5.09.06,3.21,5.06,3.22,5,0-.03-1.7-.17-3.39-.2-5.09-.06-3.21-5.06-3.22-5,0h0Z"/>
    </g>
  </g>
</svg>