<?xml version="1.0" encoding="UTF-8"?>
<svg id="Layer_2" xmlns="http://www.w3.org/2000/svg" viewBox="0 0 65.98 77.4">
  <defs>
    <style>
      .cls-1 {
        fill: #272727;
      }
    </style>
  </defs>
  <g id="Layer_1-2" data-name="Layer_1">
    <g>
      <path class="cls-1" d="M7.51,73.79c.38-5.82,2.45-11.19,4.86-16.44,1.38-3.01,4.96-11.33,7.97-5.39,1.64,3.24,2.75,6.62,6.27,8.34,3.31,1.61,6.54.61,9.33-1.57,6.18-4.83,8.88-12.62,10.59-20,2.5-10.82,4.53-21.76,6.77-32.64.97-4.71-6.26-6.73-7.23-1.99-2.24,10.87-4.27,21.82-6.77,32.64-1.04,4.49-2.29,9.14-5.01,12.93-.58.81-1.21,1.71-2.01,2.34-2.07,1.62-2.55,1.5-3.87-.29-1.09-1.48-1.46-3.58-2.45-5.15-4.21-6.68-11.76-5.5-16.22.18C4.1,53.92.59,64.8,0,73.79c-.31,4.82,7.19,4.8,7.5,0h0Z"/>
      <path class="cls-1" d="M45.31,1.12c-6.51,5.41-12.2,11.05-17.23,17.87-2.87,3.89,3.64,7.63,6.48,3.79,4.63-6.28,10.08-11.39,16.06-16.35,3.72-3.09-1.61-8.37-5.3-5.3h0Z"/>
      <path class="cls-1" d="M45.59,5.39c4.4,5.93,8.79,11.85,13.19,17.78,2.84,3.83,9.36.1,6.48-3.79-4.4-5.93-8.79-11.85-13.19-17.78-2.84-3.83-9.36-.1-6.48,3.79h0Z"/>
    </g>
  </g>
</svg>