<?xml version="1.0" encoding="UTF-8"?>
<svg id="Layer_2" xmlns="http://www.w3.org/2000/svg" viewBox="0 0 95.5 75.66">
  <defs>
    <style>
      .cls-1badSignal {
        fill: #cc5246;
      }
    </style>
  </defs>
  <g id="Layer_1-2" data-name="Layer_1">
    <g>
      <path className="cls-1badSignal" d="M36.58,58.75c6.18,5.54,12.47,10.95,18.89,16.21,2.47,2.03,6.03-1.49,3.54-3.54-6.42-5.26-12.71-10.67-18.89-16.21-2.39-2.14-5.94,1.38-3.54,3.54h0Z"/>
      <path className="cls-1badSignal" d="M56.94,54.21c-6.77,5.76-13.54,11.52-20.3,17.29-2.45,2.09,1.1,5.61,3.54,3.54,6.77-5.76,13.54-11.52,20.3-17.29,2.45-2.09-1.1-5.61-3.54-3.54h0Z"/>
      <path className="cls-1badSignal" d="M35.96,45.38c3.51-1.39,7.24-3.22,11.07-3.5,4.26-.31,8.51,1.52,12.39,3.03,3,1.17,4.3-3.67,1.33-4.82-4.35-1.69-8.96-3.48-13.72-3.21-4.34.24-8.41,2.1-12.39,3.68-2.96,1.17-1.67,6.01,1.33,4.82h0Z"/>
      <path className="cls-1badSignal" d="M21.23,34.55c7.45-5.79,16.09-10.05,25.66-10.36s18.8,3.06,27.24,7.46c2.85,1.48,5.38-2.83,2.52-4.32-9.62-5.01-20.2-8.84-31.22-8.07-10.47.73-19.58,5.4-27.75,11.75-2.54,1.97,1.02,5.49,3.54,3.54h0Z"/>
      <path className="cls-1badSignal" d="M3.6,24.15C14.78,15.86,26.84,7.4,40.97,5.42c18.17-2.55,35.74,6.05,50.82,15.21,2.76,1.68,5.27-2.65,2.52-4.32C78.48,6.69,60.2-1.95,41.18.39,25.98,2.25,13.08,10.93,1.07,19.84c-2.56,1.9-.07,6.24,2.52,4.32h0Z"/>
    </g>
  </g>
</svg>