<?xml version="1.0" encoding="UTF-8"?>
<svg id="Layer_2" xmlns="http://www.w3.org/2000/svg" viewBox="0 0 101.97 81.95">
  <defs>
    <style>
      .cls-1Nomad {
        fill: #cc5246;
      }
    </style>
  </defs>
  <g id="Layer_1-2" data-name="Layer_1">
    <g>
      <path className="cls-1Nomad" d="M5.29,80.19c3.47-11.77,9.79-20.21,21.02-25.47,10.08-4.72,21.2-6.66,31.32-11.3,17.32-7.95,30.66-22.78,37.58-40.41,1.18-3-3.66-4.3-4.82-1.33-8.15,20.75-25.15,34.7-46.05,41.42-9.58,3.08-19.6,5.68-27.95,11.54S3.34,69.12.47,78.86c-.91,3.09,3.91,4.41,4.82,1.33h0Z"/>
      <path className="cls-1Nomad" d="M91.4.16c-4.38,1.21-8.8,2.21-13.27,2.99-3.16.55-1.82,5.37,1.33,4.82,4.47-.78,8.89-1.78,13.27-2.99,3.1-.86,1.78-5.68-1.33-4.82h0Z"/>
      <path className="cls-1Nomad" d="M91.93,5.07c1.83,4.29,3.67,8.59,5.5,12.88,1.26,2.95,5.57.41,4.32-2.52l-5.5-12.88c-1.26-2.95-5.57-.41-4.32,2.52h0Z"/>
      <path className="cls-1Nomad" d="M91.89,72.7c-10.25-2.06-18.93-5.78-25.23-14.43-4.98-6.83-8.46-14.64-13.58-21.38-11.23-14.78-29.21-17.83-46.57-19.93-3.19-.39-3.16,4.62,0,5,9.75,1.18,19.83,2.48,28.81,6.71s14.09,10.96,18.88,18.95c3.92,6.55,7.52,13.47,12.96,18.93,6.37,6.39,14.74,9.21,23.41,10.96,3.14.63,4.49-4.19,1.33-4.82h0Z"/>
      <path className="cls-1Nomad" d="M14.82,7.69c-4.51,2.43-9.02,4.86-13.53,7.28-2.83,1.53-.31,5.84,2.52,4.32,4.51-2.43,9.02-4.86,13.53-7.28,2.83-1.53.31-5.84-2.52-4.32h0Z"/>
      <path className="cls-1Nomad" d="M.29,18.28c1.81,3.57,3.4,7.23,4.76,11,1.08,3,5.92,1.71,4.82-1.33-1.51-4.17-3.26-8.24-5.26-12.19-1.46-2.87-5.77-.34-4.32,2.52H.29Z"/>
    </g>
  </g>
</svg>