<?xml version="1.0" encoding="UTF-8"?>
<svg id="Layer_2" xmlns="http://www.w3.org/2000/svg" viewBox="0 0 55.99 75.32">
  <defs>
    <style>
      .cls-1 {
        fill: #f7931e;
      }
    </style>
  </defs>
  <g id="Layer_1-2" data-name="Layer_1">
    <g>
      <path class="cls-1" d="M17.66,43.73C7.91,50.33-3.79,60.2,1.18,73.43c.51,1.35,2.26,2.54,3.67,1.49,3.79-2.8,7.6-5.56,11.45-8.28l-3.76-2.16c.4,7.09,7.69,5.6,11.3,1.7,4.8-5.19,6.33-12.2,5.17-19.03-.54-3.17-5.36-1.82-4.82,1.33s.32,6.05-.74,8.92c-.43,1.17-1.04,2.34-1.72,3.39.41-.62-4.11,5.01-4.19,3.68-.1-1.73-2.11-3.33-3.76-2.16-3.85,2.72-7.66,5.48-11.45,8.28l3.67,1.49c-4.12-10.95,6.26-18.69,14.18-24.05,2.65-1.79.15-6.13-2.52-4.32h0Z"/>
      <path class="cls-1" d="M22.63,40.63l-.72-.08,3.62,2.75c-.85-2.2,3.49-8.46,4.62-10.45,2.02-3.57,4.31-7,6.89-10.2,4.89-6.06,10.65-11.27,17.11-15.6l-5.51-4.23c-4.3,15.81-13.03,29.65-25.37,40.43l6.27,1.65c-.81-2.29,3.02-5.82,4.35-7.58,1.86-2.46,3.66-4.98,5.39-7.53,3.29-4.86,6.33-9.88,9.17-15.01,2.36-4.26-3.81-7.77-6.48-3.79-6.08,9.08-12.16,18.17-18.24,27.25-2.69,4.02,3.8,7.78,6.48,3.79,6.08-9.08,12.16-18.17,18.24-27.25l-6.48-3.79c-3.74,6.76-7.83,13.3-12.35,19.56-3.38,4.68-9.56,9.97-7.31,16.34.97,2.75,4.06,3.58,6.27,1.65,13.25-11.57,22.69-26.77,27.3-43.74.82-3.01-2.72-6.11-5.51-4.23-8.16,5.47-15.26,12.12-21.14,20-2.96,3.96-5.56,8.19-7.74,12.64-1.68,3.44-4.7,8.19-3.19,12.09.67,1.72,1.81,2.55,3.62,2.75l.72.08c4.79.55,4.75-6.95,0-7.5h0Z"/>
    </g>
  </g>
</svg>