<?xml version="1.0" encoding="UTF-8"?>
<svg id="Layer_2" xmlns="http://www.w3.org/2000/svg" viewBox="0 0 93.2 77.85">
  <defs>
    <style>
      .cls-1 {
        fill: #f90;
      }
    </style>
  </defs>
  <g id="Layer_1-2" data-name="Layer_1">
    <g>
      <path class="cls-1" d="M80.94,15.98C69.2,4.92,53.41-2.32,37.05.68,19.96,3.83,5.24,19.19,1.01,35.8c-4.5,17.65,6.54,33.3,23.36,38.5,18.64,5.77,39.54,5.37,54.82-7.76,7.06-6.06,13.26-14.68,13.95-24.23.74-10.22-5.25-19.42-12.2-26.34-2.28-2.27-5.82,1.26-3.54,3.54,5.62,5.59,10.92,12.96,10.8,21.27-.11,7.54-4.58,14.41-9.73,19.6-5.46,5.5-12.37,9.87-20,11.52-9.11,1.96-18.59.53-27.62-1.19-15.45-2.95-28.89-15.11-25.38-32.03,3.02-14.56,15.24-28.39,29.65-32.41,15.47-4.31,31.09,2.7,42.29,13.25,2.34,2.2,5.88-1.32,3.54-3.54Z"/>
      <path class="cls-1" d="M27.45,28.49l-2.34-1.83c-2.46-1.93-5.88,1.19-3.54,3.54,4.78,4.79,9.66,9.46,14.66,14.02,2.37,2.17,5.92-1.36,3.54-3.54-4.99-4.56-9.88-9.23-14.66-14.02l-3.54,3.54,2.34,1.83c2.51,1.96,6.07-1.55,3.54-3.54h0Z"/>
      <path class="cls-1" d="M36.58,26.46c-5.49,4.14-10.98,8.29-16.47,12.43-2.54,1.91-.05,6.26,2.52,4.32,5.49-4.14,10.98-8.29,16.47-12.43,2.54-1.91.05-6.26-2.52-4.32h0Z"/>
      <path class="cls-1" d="M55.39,28.44c4.41,5.64,9.21,10.74,15.45,14.37,2.79,1.62,5.31-2.7,2.52-4.32-5.87-3.41-10.3-8.29-14.44-13.59-1.98-2.53-5.5,1.03-3.54,3.54h0Z"/>
      <path class="cls-1" d="M69.33,24.84c-5.77,5.05-11.54,10.09-17.32,15.14-2.43,2.12,1.12,5.65,3.54,3.54,5.77-5.05,11.54-10.09,17.32-15.14,2.43-2.12-1.12-5.65-3.54-3.54h0Z"/>
      <path class="cls-1" d="M25.12,56.35c14.31.21,28.63.43,42.94.64,3.22.05,3.22-4.95,0-5-14.31-.21-28.63-.43-42.94-.64-3.22-.05-3.22,4.95,0,5h0Z"/>
    </g>
  </g>
</svg>