<?xml version="1.0" encoding="UTF-8"?>
<svg id="Layer_2" xmlns="http://www.w3.org/2000/svg" viewBox="0 0 82.11 89.12">
  <defs>
    <style>
      .cls-1 {
        fill: #f90;
      }

      .cls-2 {
        fill: #f7931e;
      }
    </style>
  </defs>
  <g id="Layer_1-2" data-name="Layer_1">
    <g>
      <path class="cls-1" d="M6.19,61.23c3.29-7.95,8.72-15.49,7.7-24.49l-4.66,1.26c3.09,4.23,6.18,8.47,9.27,12.7,1.06,1.45,3.32,1.77,4.32,0,5.25-9.35,6.36-20.37,11.68-29.63,5.06-8.81,13.88-14.7,23.94-16.05l-2.16-3.76c-3.87,8.64-1.44,17.04,2.28,25.29,4.09,9.05,10.74,18.95,7.41,29.25-.8,2.49,2.43,4.03,4.18,2.43,3.16-2.9,6.32-5.8,9.49-8.71l-3.93-.51c5.01,11.77-3.36,21.84-12.23,28.74-7.78,6.05-18.68,6.7-28.24,6.29-12.42-.52-35.3-5.64-29.06-22.82,1.1-3.03-3.73-4.33-4.82-1.33-7.77,21.39,19.4,28.83,35.25,29.19,12.73.29,24.33-1.92,33.87-10.76s14.86-19.39,9.55-31.84c-.67-1.56-2.87-1.47-3.93-.51l-9.49,8.71,4.18,2.43c2.81-8.68-.39-17.11-4.07-25-4-8.56-10.43-18.73-6.13-28.34.66-1.48-.06-4.04-2.16-3.76-10.17,1.37-19.11,6.13-25.42,14.31-7.68,9.97-8.46,23.05-14.53,33.84h4.32c-3.09-4.23-6.18-8.47-9.27-12.7-1.28-1.75-4.97-1.48-4.66,1.26.94,8.39-4.45,15.73-7.53,23.16-1.23,2.97,3.61,4.27,4.82,1.33Z"/>
      <path class="cls-2" d="M44.08,64.39c-.79,1.62-2.66,2.32-4.41,2.21-1.11.26-2.01-.12-2.7-1.14-1.42-.44-1.94-1.34-1.56-2.69-.87-3.56,1.03-5.83,3.46-7.94,3.92-3.4,6.48-7.74,7.82-12.73l-4.57.6c1.56,2.49,2.42,4.95,3.02,7.83.31,1.46.49,2.96,1.51,4.13s2.26,1.58,3.74,1.69c2.15.17,1.64-.62,1.93,1.02.5,2.81-3.13,5.5-5.59,5.21-3.19-.38-3.16,4.62,0,5,6.17.74,12.65-7.07,10.85-13.25-.78-2.68-3.05-2.49-5.18-3.1-3.1-.88-2.42-3.05-3.34-5.72-.66-1.9-1.55-3.64-2.62-5.34-1.12-1.79-4-1.53-4.57.6-.86,3.19-2.2,6.03-4.43,8.5-1.65,1.84-3.99,3.04-5.51,4.99-2.33,3-2.1,8.77-1.31,12.28,1.72,7.58,14.84,6.37,17.76.37,1.4-2.88-2.91-5.42-4.32-2.52h0Z"/>
    </g>
  </g>
</svg>