<?xml version="1.0" encoding="UTF-8"?>
<svg id="Layer_2" xmlns="http://www.w3.org/2000/svg" viewBox="0 0 94.37 79.81">
  <defs>
    <style>
      .cls-1heroCam {
        stroke-width: 4.23px;
      }

      .cls-1heroCam, .cls-2heroCam {
        fill: none;
        stroke: #477cee;
        stroke-miterlimit: 10;
      }

      .cls-3heroCam {
        fill: #477cee;
      }

      .cls-2heroCam {
        stroke-linecap: round;
        stroke-width: 3.42px;
      }
    </style>
  </defs>
  <g id="Layer_1-2" data-name="Layer_1">
    <g>
      <path className="cls-3heroCam" d="M83.4,10.82h-18.08l-1.21-4.1c-.15-.51-.25-1.03-.31-1.55-.32-2.91-2.78-5.17-5.78-5.17h-21.72c-3,0-5.48,2.28-5.79,5.2-.05.51-.14,1.01-.28,1.5l-1.19,4.12h-3.9c-.69-3.17-3.51-5.55-6.89-5.55h-.8c-1.95,0-3.71.79-4.98,2.07-.94.94-1.61,2.14-1.9,3.49h-.16C4.62,11.12,0,15.91,0,21.78v47.07c0,6.05,4.91,10.96,10.97,10.96h72.43c6.06,0,10.97-4.91,10.97-10.96V21.78c0-6.05-4.91-10.96-10.97-10.96ZM47.18,69.78c-13.51,0-24.47-10.95-24.47-24.47,0-8.97,4.83-16.81,12.03-21.07,3.64-2.16,7.9-3.4,12.44-3.4s8.81,1.24,12.46,3.4c7.19,4.26,12.02,12.11,12.02,21.07,0,13.52-10.96,24.47-24.48,24.47ZM80.79,28.59c-3.27,0-5.92-2.65-5.92-5.93s2.65-5.92,5.92-5.92,5.93,2.65,5.93,5.92-2.65,5.93-5.93,5.93Z"/>
      <circle className="cls-1heroCam" cx="47.19" cy="45.02" r="15.84"/>
      <path className="cls-2heroCam" d="M38.17,42.98c0-3.85,3.12-6.98,6.98-6.98"/>
    </g>
  </g>
</svg>