<?xml version="1.0" encoding="UTF-8"?>
<svg id="Layer_2" xmlns="http://www.w3.org/2000/svg" viewBox="0 0 111.91 76.68">
  <defs>
    <style>
      .cls-1heroChat {
        fill: #477cee;
      }
    </style>
  </defs>
  <g id="Layer_1-2" data-name="Layer_1">
    <path className="cls-1heroChat" d="M102.33,71.13c-1.56-1.01-4.5-3.56-3.41-5.63h.01c6.11-3.39,10.25-9.9,10.25-17.37v-28.29c0-10.96-8.88-19.84-19.84-19.84H19.83C8.88,0,0,8.88,0,19.84v28.29c0,10.95,8.88,19.83,19.83,19.83h55.67c.93.63,1.76,1.19,2.36,1.51,5.04,2.72,10.13,6.21,15.93,6.95,3.51.45,7.23.32,10.76-.48,2.6-.6,5.1-1.56,7.36-2.93-3.25.6-6.8-.07-9.58-1.88ZM81.13,26.47c4.15,0,7.51,3.37,7.51,7.51s-3.36,7.51-7.51,7.51-7.51-3.36-7.51-7.51,3.37-7.51,7.51-7.51ZM28.04,41.49c-4.15,0-7.51-3.36-7.51-7.51s3.36-7.51,7.51-7.51,7.51,3.37,7.51,7.51-3.36,7.51-7.51,7.51ZM54.59,41.49c-4.15,0-7.51-3.36-7.51-7.51s3.36-7.51,7.51-7.51,7.51,3.37,7.51,7.51-3.37,7.51-7.51,7.51Z"/>
  </g>
</svg>