<?xml version="1.0" encoding="UTF-8"?>
<svg id="Layer_2" xmlns="http://www.w3.org/2000/svg" viewBox="0 0 112.93 107.43">
  <defs>
    <style>
      .cls-1heroCheck {
        fill: #477cee;
      }
    </style>
  </defs>
  <g id="Layer_1-2" data-name="Layer_1">
    <path className="cls-1heroCheck" d="M112.93,53.72l-16.1-13.12,5.31-20.08-20.74-1.14L73.91,0l-17.45,11.28L39.01,0l-7.49,19.38-20.74,1.14,5.31,20.08L0,53.72l16.09,13.12-5.31,20.07,20.74,1.15,7.49,19.37,17.45-11.27,17.45,11.27,7.49-19.37,20.74-1.14-5.31-20.08,16.1-13.12ZM66.66,51.23c-5.28,6.26-8.72,13.34-9.93,20.48l-1.63,9.6-6.25-7.47c-5.28-6.29-12.47-11.19-20.26-13.79l2.86-8.54c6.85,2.29,13.15,5.92,18.53,10.65,2.12-5.89,5.44-11.57,9.8-16.73,5.37-6.37,12.4-12.05,20.9-16.89l4.45,7.82c-7.57,4.31-13.79,9.32-18.47,14.87Z"/>
  </g>
</svg>