<?xml version="1.0" encoding="UTF-8"?>
<svg id="Layer_2" xmlns="http://www.w3.org/2000/svg" viewBox="0 0 82.91 68.16">
  <defs>
    <style>
      .cls-1 {
        fill: #f90;
      }
    </style>
  </defs>
  <g id="Layer_1-2" data-name="Layer_1">
    <path class="cls-1" d="M37.07,32.04c-4.48,2.56-5.7,8.18-3.44,12.73,2.71,5.44,9.37,6.84,14.92,5.88,5.96-1.03,12.15-4.58,13.29-10.98,1.16-6.46-3.35-12.6-8.25-16.23-9.28-6.87-28.84-12.08-36.25.18-6.29,10.41-3.07,29.39,6.71,36.76,6.08,4.58,14.11,4.36,21.37,4.65,7.9.31,17.36,1.69,24.76-1.76,11.05-5.15,14.99-19.55,11.48-30.58-3.82-11.99-16.5-20.61-27.1-26.12S30.9-3.08,19.62,3.03C8.4,9.11,3.4,22.71,1.16,34.54c-1.32,6.97-2.1,13.51.98,20.07,2.09,4.46,5.35,11.22,10.17,13.31,2.92,1.27,5.47-3.04,2.52-4.32s-5-5.25-6.56-8.01c-2.14-3.78-3.51-7.09-3.41-11.5.19-8.46,2.84-18.1,6.85-25.53S21.86,5.64,30.38,5.01c8.94-.66,17.9,3.54,25.42,7.95s16.36,10.62,20.22,18.91,1.99,20.17-5.72,25.61c-4.53,3.2-10.29,2.89-15.57,2.81-6.51-.11-13.27,0-19.72-.93-12.06-1.76-15.98-13.44-15.53-24.33.32-7.72,3.85-13.4,12.14-13.65,6.12-.18,12.78,1.95,17.87,5.28,6.71,4.4,11.52,14.15,1.53,18.11-2.86,1.14-6.38,1.74-9.37.67-3.58-1.28-6.31-6.66-2.06-9.08,2.79-1.6.28-5.92-2.52-4.32h0Z"/>
  </g>
</svg>