<?xml version="1.0" encoding="UTF-8"?>
<svg id="Layer_2" xmlns="http://www.w3.org/2000/svg" viewBox="0 0 81.01 67.5">
  <defs>
    <style>
      .cls-1 {
        fill: #f90;
      }
    </style>
  </defs>
  <g id="Layer_1-2" data-name="Layer_1">
    <g>
      <path class="cls-1" d="M80.61,25.2C75.27-2.15,39.86-4.87,19.22,5.8,7.18,12.04-1.17,23.81.13,37.76c1.99,21.35,23.12,30.88,42.55,29.63,21.9-1.42,41.39-19.1,37.93-42.19-.48-3.17-5.29-1.82-4.82,1.33,2.91,19.43-14.25,34.23-32.31,35.81-17.79,1.55-38.52-7.1-38.48-27.52.04-23.26,28.6-32.94,47.89-29.15,11.31,2.22,20.62,9.15,22.9,20.86.62,3.16,5.44,1.82,4.82-1.33Z"/>
      <path class="cls-1" d="M11.35,17.71c18.33,13.01,37.26,25.11,56.77,36.27,2.8,1.6,5.32-2.72,2.52-4.32C51.14,38.5,32.2,26.4,13.87,13.39c-2.63-1.87-5.13,2.47-2.52,4.32h0Z"/>
    </g>
  </g>
</svg>