<?xml version="1.0" encoding="UTF-8"?>
<svg id="Layer_2" xmlns="http://www.w3.org/2000/svg" viewBox="0 0 94.9 82.78">
  <defs>
    <style>
      .cls-1Question {
        fill: #cc5246;
      }
    </style>
  </defs>
  <g id="Layer_1-2" data-name="Layer_1">
    <g>
      <path className="cls-1Question" d="M3.21,49.86l-.5-.06,2.16,1.24c-.04-.06,1.03-2.57,1.53-3.31,1.6-2.36,4.36-3.82,7.12-2.83,5.76,2.06,1.48,10.22.71,14.3-1.13,5.97,1.32,12.6,8.06,13.1,3.21.24,3.19-4.76,0-5-5.86-.43-2.65-8.94-1.8-12.04.73-2.66,1.26-5.33.71-8.08-.99-4.94-4.76-7.98-9.84-7.7-4.82.26-8.6,3.68-10.42,7.97-1.28,3-1.88,6.89,2.26,7.42,3.18.41,3.15-4.6,0-5h0Z"/>
      <path className="cls-1Question" d="M29.19,82.78c3.22,0,3.22-5,0-5s-3.22,5,0,5h0Z"/>
      <path className="cls-1Question" d="M29.5,15.16l-.41.11,3.08,3.08c2.13-8.94,12.61-14.13,21.46-13.31,10.36.96,15.94,12.82,11.23,21.85-3.99,7.65-11.66,11.4-17.47,17.31-2.04,2.08-3.51,4.6-3.51,7.59,0,3.35.68,7.83,2.31,10.8s5.86.3,4.32-2.52c-.9-1.65-1.77-7.68-1.35-9.37.66-2.67,3.25-4.32,5.3-5.94,4.09-3.24,8.22-6.5,11.51-10.59,6.11-7.6,7.16-16.22,2.72-25.03C64.77,1.35,55.31-1.02,47.26.38c-4.76.82-9.29,2.9-13.05,5.94s-5.75,6.05-6.86,10.7c-.44,1.83,1.19,3.6,3.08,3.08l.41-.11c3.1-.86,1.78-5.68-1.33-4.82h0Z"/>
      <path className="cls-1Question" d="M51.61,77.09c3.22,0,3.22-5,0-5s-3.22,5,0,5h0Z"/>
      <path className="cls-1Question" d="M82.73,44.94c3.55-2.52,7.8.65,7.1,4.83s-4.46,5.49-7.68,7.26c-4.07,2.23-7.1,5.89-5.72,10.71.88,3.09,5.71,1.78,4.82-1.33-1.26-4.42,8.59-7.28,10.95-10.25,2.09-2.62,3.16-6.11,2.52-9.44-1.24-6.46-9.05-9.98-14.52-6.09-2.6,1.85-.11,6.19,2.52,4.32h0Z"/>
      <path className="cls-1Question" d="M76.44,82.19c3.22,0,3.22-5,0-5s-3.22,5,0,5h0Z"/>
    </g>
  </g>
</svg>