<?xml version="1.0" encoding="UTF-8"?>
<svg id="Layer_2" xmlns="http://www.w3.org/2000/svg" viewBox="0 0 107.82 98.43">
  <defs>
    <style>
      .cls-1Scissors {
        fill: #cc5246;
      }
    </style>
  </defs>
  <g id="Layer_1-2" data-name="Layer_1">
    <g>
      <path className="cls-1Scissors" d="M55.08,39.92c12.33-2.15,13.55-20.43,9.43-29.66-3.57-7.98-15.18-14.28-22.64-7.15-5.36,5.12-2.45,13.98-.1,19.81,3.09,7.65,7.5,14.67,10.9,22.18,7.63,16.84,14.96,33.81,23.52,50.21,1.49,2.85,5.81.33,4.32-2.52-11.15-21.36-20.3-43.69-31.13-65.2-2.29-4.54-8.92-16.26-3.97-20.93,5.48-5.18,13.37,1.88,15.13,7.13,2.18,6.54,1.78,19.84-6.77,21.32-3.16.55-1.82,5.37,1.33,4.82h0Z"/>
      <path className="cls-1Scissors" d="M35.99,51.41c-4,5.31-8.44,11.16-15.83,11.03-5.56-.09-12.46-4.33-14.44-9.61-.66-1.76-1.21-4.44-.43-6.26,1.42-3.33,5.8-2.17,8.46-1.48,5.14,1.34,10.31,2.89,15.36,4.55,24.76,8.14,49.9,14.58,75.58,19.08,3.15.55,4.5-4.27,1.33-4.82-18.7-3.28-37.23-7.5-55.48-12.74-8.56-2.46-16.92-5.58-25.48-8.02-5.47-1.56-12.25-4.78-18.03-3.62-11.93,2.39-6.44,17.86.11,22.89,4.8,3.68,10.99,5.95,17.04,4.6,7.52-1.67,11.75-7.25,16.14-13.07,1.94-2.57-2.4-5.07-4.32-2.52h0Z"/>
      <path className="cls-1Scissors" d="M38.31,53.21c5.08.75,9.89.18,14.85-1.08,2.82-.72,5.58-1.81,8.42-2.45,3.25-.73,5.34.6,8.32,1.94,11.36,5.12,22.5,10.72,33.54,16.51,2.85,1.49,5.38-2.82,2.52-4.32-11.04-5.79-22.18-11.39-33.54-16.51-2.32-1.04-5.1-2.94-7.59-3.33-1.8-.28-3.7.63-5.41,1.13-6.42,1.88-12.99,4.29-19.78,3.28-3.15-.47-4.51,4.35-1.33,4.82h0Z"/>
      <path className="cls-1Scissors" d="M50.36,39.77c2.28,6.75-1.18,12.34-2.08,18.86-.66,4.79,2.56,7.73,5.27,11.31,7.38,9.74,17.3,17.36,24.29,27.37,1.83,2.62,6.16.12,4.32-2.52-6.78-9.72-16.52-16.87-23.57-26.35-1.45-1.95-3.47-3.98-4.63-6.08-1.31-2.39-.41-4.57.3-7.06,1.61-5.66,2.87-11.1.93-16.85-1.03-3.03-5.86-1.73-4.82,1.33h0Z"/>
      <path className="cls-1Scissors" d="M52.23,53.15l2.3,2.25c.94.92,2.62,1,3.54,0s1-2.56,0-3.54l-2.3-2.25c-.94-.92-2.62-1-3.54,0s-1,2.56,0,3.54h0Z"/>
    </g>
  </g>
</svg>