<?xml version="1.0" encoding="UTF-8"?>
<svg id="Layer_2" xmlns="http://www.w3.org/2000/svg" viewBox="0 0 126.56 56.62">
  <defs>
    <style>
      .cls-1Sea {
        fill: #cc5246;
      }
    </style>
  </defs>
  <g id="Layer_1-2" data-name="Layer_1">
    <g>
      <path className="cls-1Sea" d="M3.07,21.35c10.77-3.37,20.3-9.2,28.34-17.11l-4.18-2.43c-2.3,8.77,4.52,17.36,13.36,18.33,10.19,1.12,17.89-9.23,23.91-15.87l-4.18-1.1c1.32,7.21,7.34,15.2,15.36,15.05s14.81-8.42,20.73-13.08l-3.93-.51c2.26,5.27,5.87,11.36,12,12.44s14.29,1.68,20.34-.3c3.04-1,1.74-5.83-1.33-4.82-4.95,1.62-10.41.7-15.5.38-6.24-.39-8.91-4.87-11.2-10.22-.7-1.64-2.82-1.37-3.93-.51-4.53,3.57-8.62,8.28-13.95,10.68-7.08,3.19-12.62-4.09-13.78-10.44-.34-1.83-2.98-2.43-4.18-1.1-4.2,4.62-8.4,10.17-14.03,13.11-7.13,3.72-17.12-2.18-14.88-10.71.63-2.42-2.39-4.19-4.18-2.43C20.44,8.02,11.71,13.41,1.74,16.53c-3.06.96-1.75,5.79,1.33,4.82h0Z"/>
      <path className="cls-1Sea" d="M14.4,40.74c6.09,2.67,11.65.46,16.91-3l-3.42-.9c4.39,6.5,13.12,4.92,19.62,3.21,3.11-.82,1.79-5.64-1.33-4.82-3.78,1-11.15,3.27-13.98-.91-.72-1.07-2.23-1.68-3.42-.9-3.42,2.26-7.63,4.85-11.86,3-2.92-1.28-5.47,3.03-2.52,4.32h0Z"/>
      <path className="cls-1Sea" d="M69.65,33.13c6.09,2.67,11.65.46,16.91-3l-3.42-.9c4.39,6.5,13.12,4.92,19.62,3.21,3.11-.82,1.79-5.64-1.33-4.82-3.78,1-11.15,3.27-13.98-.91-.72-1.07-2.23-1.68-3.42-.9-3.42,2.26-7.63,4.85-11.86,3-2.92-1.28-5.47,3.03-2.52,4.32h0Z"/>
      <path className="cls-1Sea" d="M51.38,55.44c6.09,2.67,11.65.46,16.91-3l-3.42-.9c4.39,6.5,13.12,4.92,19.62,3.21,3.11-.82,1.79-5.64-1.33-4.82-3.78,1-11.15,3.27-13.98-.91-.72-1.07-2.23-1.68-3.42-.9-3.42,2.26-7.63,4.85-11.86,3-2.92-1.28-5.47,3.03-2.52,4.32h0Z"/>
    </g>
  </g>
</svg>