<?xml version="1.0" encoding="UTF-8"?>
<svg id="Layer_2" xmlns="http://www.w3.org/2000/svg" viewBox="0 0 99.6 76.15">
  <defs>
    <style>
      .cls-1 {
        fill: #f90;
      }
    </style>
  </defs>
  <g id="Layer_1-2" data-name="Layer_1">
    <path class="cls-1" d="M4.81,13.63c6.64-8.8,23.34-13.44,28.41-.23,2.37,6.19-2.25,16.24,5.58,19.75,4.53,2.03,11.03.78,15.86.72,2.92-.04,6.58-.71,9.31.42s4.13,4.59,5.74,7.18c6.92,11.13,13.84,22.26,20.76,33.39l2.82-3.67c-6.78-2.69-13.56-5.39-20.34-8.08-2.61-1.04-4.53,3.46-1.93,4.57,4.72,2,9.46,3.96,14.23,5.83,2.98,1.17,7.09,3.6,10.13,1.38,2.57-1.88,2.32-5.96,2.59-8.77.54-5.53,1.08-11.06,1.62-16.59.31-3.2-4.69-3.18-5,0s-.6,6.14-.9,9.21c-.27,2.8.23,7.99-1.04,10.45.29,1.04.02,1.45-.81,1.24-.89.1-1.73-.13-2.51-.69-1.55-.5-3.06-1.19-4.57-1.79-3.76-1.49-7.49-3.03-11.21-4.6l-1.93,4.57c6.78,2.69,13.56,5.39,20.34,8.08,2.07.82,3.9-1.94,2.82-3.67-8.05-12.94-15.6-26.41-24.24-38.96-2.95-4.28-6.27-4.6-11.18-4.56-3.76.04-7.52.1-11.28.15-4.17.05-8.91.29-9.2-4.99-.25-4.71.68-9-1.44-13.44-1.98-4.13-5.62-7.36-9.83-9.09C17.33-2.79,6.72,2.85.49,11.1c-1.94,2.57,2.4,5.06,4.32,2.52h0Z"/>
  </g>
</svg>