<?xml version="1.0" encoding="UTF-8"?>
<svg id="Layer_2" xmlns="http://www.w3.org/2000/svg" viewBox="0 0 93.2 77.85">
  <defs>
    <style>
      .cls-1unsatisfied {
        fill: #cb5246;
      }
    </style>
  </defs>
  <g id="Layer_1-2" data-name="Layer_1">
    <g>
      <path className="cls-1unsatisfied" d="M80.94,15.98C69.2,4.92,53.41-2.32,37.05.68S5.24,19.19,1.01,35.8c-4.5,17.65,6.54,33.3,23.36,38.5,18.64,5.77,39.54,5.37,54.82-7.76,7.06-6.06,13.26-14.68,13.95-24.23.74-10.22-5.25-19.42-12.2-26.34-2.28-2.27-5.82,1.26-3.54,3.54,5.62,5.59,10.92,12.96,10.8,21.27-.11,7.54-4.58,14.41-9.73,19.6-5.46,5.5-12.37,9.87-20,11.52-9.11,1.96-18.59.53-27.62-1.19-15.45-2.95-28.89-15.11-25.38-32.03,3.02-14.56,15.24-28.39,29.65-32.41,15.47-4.31,31.09,2.7,42.29,13.25,2.34,2.2,5.88-1.32,3.54-3.54Z"/>
      <path className="cls-1unsatisfied" d="M25.12,60.08l42.94-.81c3.21-.06,3.22-5.06,0-5l-42.94.81c-3.21.06-3.22,5.06,0,5h0Z"/>
      <path className="cls-1unsatisfied" d="M52.75,27.7c3.64-4.63,9.28-5.48,14.12-2.03,2.63,1.87,5.13-2.46,2.52-4.32-6.46-4.6-15.26-3.44-20.18,2.81-1.97,2.5,1.55,6.06,3.54,3.54h0Z"/>
      <path className="cls-1unsatisfied" d="M21.23,21.88c3.61,7.01,11.88,15.77,20.35,10.72,2.76-1.65.25-5.97-2.52-4.32-5.72,3.41-11.32-4.67-13.51-8.93-1.47-2.86-5.79-.34-4.32,2.52h0Z"/>
      <path className="cls-1unsatisfied" d="M56.09,31.64c-.21,3.8-.11,7.58.29,11.37.34,3.17,5.34,3.2,5,0-.4-3.79-.5-7.57-.29-11.37.18-3.22-4.82-3.21-5,0h0Z"/>
      <path className="cls-1unsatisfied" d="M30.05,33.54c.11,3.15.21,6.31.32,9.46s5.11,3.22,5,0-.21-6.31-.32-9.46-5.11-3.22-5,0h0Z"/>
    </g>
  </g>
</svg>