<?xml version="1.0" encoding="UTF-8"?>
<svg id="Layer_2" xmlns="http://www.w3.org/2000/svg" xmlns:xlink="http://www.w3.org/1999/xlink" viewBox="0 0 274.28 430.99">
  <defs>
    <style>
      .cls-1 {
        fill: #454f60;
      }

      .cls-2 {
        fill: #d18179;
      }

      .cls-3, .cls-4 {
        fill: none;
      }

      .cls-5 {
        clip-path: url(#clippath-1);
      }

      .cls-6 {
        fill: #1e1c1c;
      }

      .cls-7 {
        fill: #5c8fff;
      }

      .cls-8 {
        fill: #d2d6db;
      }

      .cls-9 {
        fill: #333;
      }

      .cls-10 {
        fill: #999;
      }

      .cls-11 {
        fill: #6a7a91;
      }

      .cls-4 {
        stroke: #5c8fff;
        stroke-miterlimit: 10;
      }

      .cls-12 {
        fill: #9db8ea;
      }

      .cls-13 {
        fill: #c65c52;
      }

      .cls-14 {
        fill: #e5917f;
      }

      .cls-15 {
        clip-path: url(#clippath);
      }
    </style>
    <clipPath id="clippath">
      <path class="cls-3" d="M162.92,226.06h-55.07c2.03-11.2,3.53-25.06,3.01-40.89,0-.17-.01-.34-.01-.34-.45-13.2-1.74-22.03-3-27.95h55.07v69.19Z"/>
    </clipPath>
    <clipPath id="clippath-1">
      <path class="cls-3" d="M15.36,284.62c-2.41,2.68,2.74,15.11,5.68,19.92,1.36,2.22,5.39,8.49,12.88,15.16,4.32,3.84,8.37,6.54,11.37,8.34,8.97.76,19.94,2.52,28.91,3.27l12.64-23.01-2.65-26.69c-4.18-6.95-15.92-10.43-16.19-7.58-.27,2.93-.52,5.84-.76,8.72-13.56,9.66-24.33,11.41-32.59,10.23-9.73-1.39-16.93-10.97-19.3-8.35Z"/>
    </clipPath>
  </defs>
  <g id="Layer_1-2" data-name="Layer_1">
    <g>
      <path class="cls-11" d="M126.78,181.77H47.2v-73.52h52.99c-1.03,1.05-1.99,2.39-3.35,4.55-4.57,7.25-17.8,21.25,29.94,68.97Z"/>
      <g class="cls-15">
        <path class="cls-14" d="M162.92,226.06h-55.07c2.03-11.2,3.53-25.06,3.01-40.89,0-.17-.01-.34-.01-.34-.45-13.2-1.74-22.03-3-27.95h55.07v69.19Z"/>
        <path class="cls-13" d="M152.52,183.65c-2.76,8.51-31.47,18.53-42.95,12.44-.13-3.16-1.17-9.28-1.29-12.44"/>
      </g>
      <path class="cls-14" d="M199.84,89.67c10.96,38.42-17.71,97.18-65.11,98-22.34.39-46.35-11.06-55.56-28.33-1.37-2.57-8.1-30.98-6.66-58.29,1.55-29.45,28.51-66.2,64.12-68.59,36.51-2.45,53.43,22.94,63.21,57.21Z"/>
      <path class="cls-1" d="M162.92,77.24c-5.15,8.49-25.17,25.51-41.98,31.95-24.88,9.53-64.7,3.75-76.07,5.09,1.1-4.8,2.33-20.84,2.33-23.07,0-5.29.74-49.85,35.62-74.65,2.18-1.56,38.22-26.45,68.97-12.13,4.74,2.21,8.28,4.85,10.61,6.82,1.6-.14,4.29-.29,7.58,0,27.39,2.41,43.25,30.59,44.33,32.59,2.32,4.27,5.59,11.41,7.2,21.22.13,38.91.26,77.81.38,116.72-19.7-.26-39.41-.51-59.11-.76v-85.31"/>
      <path class="cls-12" d="M274.06,329.1c-2.22,34.2-11.65,58.42-20.92,75.03-2.22,3.99-4.7,7.86-4.7,7.86-4.44,7.01-8.69,12.58-11.97,16.6h-4.04c-8.58,1.6-19.66,2.75-32.46,1.8-4.99-.37-9.62-1.02-13.85-1.81-19.06-.02-38.11-.01-57.17.04-35.91.09-71.81.19-107.52.02,2.35-35.47,7.18-75.61,16.17-119.18,6.76-32.75,14.89-62.68,23.48-89.55.84-2.63,2.3-5,4.24-6.95l2.1-2.1c1.96-1.96,4.36-3.42,7-4.26,11.55-3.68,24.73-7.12,36.16-9.88,3.18,10.41,8.13,12.74,21.53,12.74,17.97,0,30.86-5.78,30.89-20.83,14.64-2.38,32.37-5.88,47-2.62,3.59.8,6.72,1.69,9.28,2.51,2.13.67,4.04,1.86,5.63,3.43,1.02,1.02,2.08,2.11,3.17,3.26,50.2,52.96,46.38,127.71,45.98,133.89Z"/>
      <polyline class="cls-7" points="198.44 250.5 188.34 325.44 127.94 302.76 129.07 300.74 173.7 306.28"/>
      <path class="cls-4" d="M129.33,301.2c-15.33,28.13-30.65,56.25-45.98,84.38,13.05,9.15,40.52,28.35,74.63,37.45s63.64,8.76,79.13,4.85"/>
      <polyline class="cls-14" points="118.94 319.38 86.23 307.57 73.34 331.07 99.45 354.82"/>
      <path class="cls-7" d="M71.42,427.77l-1.41-136.69c-6.19,5.59-9.84,117.74-10.86,137.56h12.26"/>
      <g>
        <rect class="cls-9" x="-3.01" y="254.11" width="90.44" height="48.83" rx="7.21" ry="7.21" transform="translate(253.89 92.64) rotate(57.33)"/>
        <path class="cls-6" d="M80.44,307.92c-15.57-24.28-31.14-48.55-46.7-72.83l-2.2-3.43s.04-.03.06-.04c3.73-2.39,8.7-1.31,11.1,2.43l40.23,62.74c2.39,3.73,1.31,8.7-2.43,11.1l-.06.04Z"/>
        <ellipse class="cls-9" cx="35.83" cy="274.93" rx="7.77" ry="10.23" transform="translate(-145.4 65.11) rotate(-33.39)"/>
        <rect class="cls-10" x="7.04" y="249.4" width="13.76" height="20.27" rx="5.11" ry="5.11" transform="translate(-137.9 48.58) rotate(-32.67)"/>
        <ellipse class="cls-9" cx="9.26" cy="257.29" rx="3.2" ry="4.22" transform="translate(-140.08 47.58) rotate(-33.39)"/>
        <ellipse class="cls-9" cx="17.26" cy="261.29" rx="3.2" ry="4.22" transform="translate(-140.96 52.64) rotate(-33.39)"/>
        <path class="cls-6" d="M35.92,237.08c-2.53-3.1-6.86-1.8-8.38-2.69.49-.61,4.09-2.71,4.75-3.22l3.63,5.91Z"/>
        <path class="cls-6" d="M75.53,310.65c3.1-2.53,1.8-6.86,2.69-8.38.61.49,2.71,4.09,3.22,4.75l-5.91,3.63Z"/>
      </g>
      <g class="cls-5">
        <path class="cls-14" d="M15.36,284.62c-2.41,2.68,2.74,15.11,5.68,19.92,1.36,2.22,5.39,8.49,12.88,15.16,4.32,3.84,8.37,6.54,11.37,8.34,8.97.76,19.94,2.52,28.91,3.27l12.64-23.01-2.65-26.69c-4.18-6.95-15.92-10.43-16.19-7.58-.27,2.93-.52,5.84-.76,8.72-13.56,9.66-24.33,11.41-32.59,10.23-9.73-1.39-16.93-10.97-19.3-8.35Z"/>
        <polygon class="cls-2" points="67.38 281.73 47.62 272.84 55.9 256.08 76.28 266.14 67.38 281.73"/>
        <path class="cls-2" d="M37.23,310.24l-26.55-19.98,20.82,49.32,8.23-20.31c1.31-3.23.28-6.94-2.5-9.03Z"/>
      </g>
      <path class="cls-8" d="M144.37,153.87c0,11.52-9.33,20.84-20.84,20.84s-20.84-9.33-20.84-20.84h41.69Z"/>
    </g>
  </g>
</svg>