<?xml version="1.0" encoding="UTF-8"?>
<svg id="Layer_2" xmlns="http://www.w3.org/2000/svg" viewBox="0 0 124.01 152.05">
  <defs>
    <style>
      .cls-1 {
        fill: #5c8fff;
      }

      .cls-2 {
        fill: #d2d6db;
      }
    </style>
  </defs>
  <g id="Layer_1-2" data-name="Layer_1">
    <g>
      <g>
        <circle class="cls-2" cx="106.87" cy="146.75" r="5.3"/>
        <circle class="cls-2" cx="100.87" cy="128.42" r="6.71"/>
        <circle class="cls-2" cx="98.39" cy="106.56" r="8.83"/>
      </g>
      <circle class="cls-2" cx="49.31" cy="31.87" r="31.87"/>
      <circle class="cls-2" cx="82.61" cy="45.38" r="31.25"/>
      <circle class="cls-2" cx="31.87" cy="61.93" r="31.87"/>
      <circle class="cls-2" cx="64.22" cy="61.93" r="31.87"/>
      <circle class="cls-2" cx="92.75" cy="61.32" r="31.25"/>
      <g>
        <path class="cls-1" d="M39.73,40.19h-3.95v-2.26h10.48v2.26h-3.95v9.84h-2.58v-9.84Z"/>
        <path class="cls-1" d="M57.24,45.11h-6.45v4.92h-2.58v-12.1h2.58v4.92h6.45v-4.92h2.58v12.1h-2.58v-4.92Z"/>
        <path class="cls-1" d="M62.42,37.93h9.9v2.26h-7.32v2.66h6.58v2.26h-6.58v2.66h7.32v2.26h-9.9v-12.1Z"/>
        <path class="cls-1" d="M78.86,46.16l-4.76-8.23h2.74l3.05,5.74h.52l3.05-5.74h2.74l-4.76,8.24v3.85h-2.58v-3.87Z"/>
        <path class="cls-1" d="M35.92,62.94h7.69v6.45h-2.11v-1.29c-.84.94-2.13,1.61-4.26,1.61-4.06,0-6.58-2.18-6.58-6.37s2.52-6.37,6.58-6.37c2.95,0,5.08,1.15,6.03,3.39l-2.45.89c-.6-1.32-1.82-2.03-3.58-2.03-2.52,0-3.97,1.52-3.97,4.13s1.45,4.13,3.97,4.13c1.97,0,3.29-.94,3.77-2.58h-5.1v-1.95Z"/>
        <path class="cls-1" d="M46.22,57.3h9.9v2.26h-7.32v2.66h6.58v2.26h-6.58v2.66h7.32v2.26h-9.9v-12.1Z"/>
        <path class="cls-1" d="M62.02,59.56h-3.95v-2.26h10.48v2.26h-3.95v9.84h-2.58v-9.84Z"/>
        <path class="cls-1" d="M76.31,57.3h2.58v12.1h-2.58v-12.1Z"/>
        <path class="cls-1" d="M84.94,59.56h-3.95v-2.26h10.48v2.26h-3.95v9.84h-2.58v-9.84Z"/>
        <path class="cls-1" d="M94.95,66.65c.92,0,1.52.58,1.52,1.45s-.6,1.44-1.52,1.44-1.52-.58-1.52-1.44.61-1.45,1.52-1.45ZM93.66,60.18v-2.89h2.58v2.89l-.42,5.18h-1.76l-.4-5.18Z"/>
      </g>
    </g>
  </g>
</svg>