<?xml version="1.0" encoding="UTF-8"?>
<svg id="Layer_2" xmlns="http://www.w3.org/2000/svg" viewBox="0 0 851.55 785.18">
  <defs>
    <style>
      .cls-1 {
        fill: #5c6fff;
      }

      .cls-2 {
        fill: #e6e7e8;
      }
    </style>
  </defs>
  <g id="Layer_1-2" data-name="Layer_1">
    <g>
      <rect class="cls-2" x="0" width="851.55" height="785.18" rx="56.84" ry="56.84"/>
      <rect class="cls-1" x="68.05" y="269.33" width="715.45" height="260.61" rx="21.27" ry="21.27"/>
      <g>
        <path d="M204.17,375.94h21.83c8.33,0,14.66,4.71,14.66,13.29,0,4.82-2.29,8.19-5.84,10.44,5.1,2.07,8.33,6.08,8.33,12.2,0,8.58-6.43,13.32-15.08,13.29h-23.91v-49.22ZM224.63,395.81c3.62,0,6.71-2.67,6.71-6.57s-3.13-6.08-6.71-6.08h-11.11v12.66h11.11ZM226.85,418.03c4.46,0,8.33-3.13,8.33-7.88s-3.83-7.35-8.33-7.35h-13.32v15.22h13.32Z"/>
        <path d="M248.45,400.55c0-15.22,9.81-25.77,25.17-25.77s25.17,10.55,25.17,25.77-9.77,25.73-25.17,25.73-25.17-10.51-25.17-25.73ZM273.62,416.97c9.67,0,16.1-6.93,16.1-16.42s-6.43-16.42-16.1-16.42-16.1,6.89-16.1,16.42,6.43,16.42,16.1,16.42Z"/>
        <path d="M303.17,400.55c0-15.22,9.81-25.77,25.17-25.77s25.17,10.55,25.17,25.77-9.77,25.73-25.17,25.73-25.17-10.51-25.17-25.73ZM328.34,416.97c9.67,0,16.1-6.93,16.1-16.42s-6.43-16.42-16.1-16.42-16.1,6.89-16.1,16.42,6.43,16.42,16.1,16.42Z"/>
        <path d="M360,375.94h9.32v19.3l16.91-19.3h12.09l-20.25,23.1,20.43,26.12h-12.23l-14.2-19.23-2.74,3.09v16.14h-9.32v-49.22Z"/>
        <path d="M438.85,375.94h11.46l18.63,49.22h-9.81l-4.15-10.83h-20.85l-4.11,10.83h-9.84l18.67-49.22ZM451.61,405.51l-7.1-18.49-7.03,18.49h14.13Z"/>
        <path d="M490.81,400.55c0-15.22,9.81-25.77,25.17-25.77,9.84,0,17.37,4.32,21.55,11.39l-8.33,4.46c-2.81-4.04-7.42-6.5-13.22-6.5-9.67,0-16.1,6.89-16.1,16.42s6.43,16.42,16.1,16.42c5.8.04,10.41-2.43,13.22-6.47l8.33,4.46c-4.18,7.07-11.71,11.39-21.55,11.32-15.36,0-25.17-10.51-25.17-25.73Z"/>
        <path d="M561.35,375.94h11.46l18.63,49.22h-9.81l-4.15-10.83h-20.85l-4.11,10.83h-9.84l18.67-49.22ZM574.11,405.51l-7.1-18.49-7.03,18.49h14.13Z"/>
        <path d="M597.96,375.94h9.32v40.39h22.71v8.82h-32.03v-49.22Z"/>
        <path d="M637.6,375.94h9.32v40.39h22.71v8.82h-32.03v-49.22Z"/>
      </g>
    </g>
  </g>
</svg>