<?xml version="1.0" encoding="UTF-8"?>
<svg id="Layer_2" xmlns="http://www.w3.org/2000/svg" viewBox="0 0 113.8 113.79">
  <defs>
    <style>
      .cls-1Facebook {
        fill: #fff;
      }
    </style>
  </defs>
  <g id="Layer_1-2" data-name="Layer_1">
    <g>
      <path className="cls-1Facebook" d="M81.61,8c13.34,0,24.19,10.85,24.19,24.18v49.43c0,13.33-10.85,24.18-24.19,24.18h-49.42c-13.34,0-24.19-10.85-24.19-24.18v-49.43c0-13.33,10.85-24.18,24.19-24.18h49.42M81.61,0h-49.42C14.41,0,0,14.41,0,32.18v49.43c0,17.77,14.41,32.18,32.19,32.18h49.42c17.78,0,32.19-14.41,32.19-32.18v-49.43C113.8,14.41,99.39,0,81.61,0h0Z"/>
      <path className="cls-1Facebook" d="M80.45,36.54c1.23,0,2.33.05,3.39.16v-13.94c-1.67-.14-2.4-.19-4.16-.19-18.67,0-28.82,7.5-28.82,25.05v11.27h-13v14.81h13v40.09h17.39v-40.09h11.72l3.07-14.81h-14.79v-10.95c0-8.37,3.35-11.4,12.2-11.4Z"/>
    </g>
  </g>
</svg>