<?xml version="1.0" encoding="UTF-8"?>
<svg id="Layer_2" xmlns="http://www.w3.org/2000/svg" viewBox="0 0 113.79 113.79">
  <defs>
    <style>
      .cls-1Insta {
        fill: #fff;
      }
    </style>
  </defs>
  <g id="Layer_1-2" data-name="Layer_1">
    <g>
      <path className="cls-1Insta" d="M81.61,8c13.34,0,24.18,10.85,24.18,24.18v49.43c0,13.34-10.85,24.18-24.18,24.18h-49.43c-13.34,0-24.18-10.85-24.18-24.18v-49.43c0-13.34,10.85-24.18,24.18-24.18h49.43M81.61,0h-49.43C14.41,0,0,14.41,0,32.18v49.43c0,17.77,14.41,32.18,32.18,32.18h49.43c17.77,0,32.18-14.41,32.18-32.18v-49.43C113.79,14.41,99.38,0,81.61,0h0Z"/>
      <path className="cls-1Insta" d="M56.9,35.59c11.75,0,21.31,9.56,21.31,21.31s-9.56,21.31-21.31,21.31-21.31-9.56-21.31-21.31,9.56-21.31,21.31-21.31M56.9,27.59c-16.19,0-29.31,13.12-29.31,29.31s13.12,29.31,29.31,29.31,29.31-13.12,29.31-29.31-13.12-29.31-29.31-29.31h0Z"/>
      <path className="cls-1Insta" d="M87.51,19.11c-4.13,0-7.47,3.35-7.47,7.47s3.35,7.47,7.47,7.47,7.47-3.35,7.47-7.47-3.35-7.47-7.47-7.47h0Z"/>
    </g>
  </g>
</svg>