<?xml version="1.0" encoding="UTF-8"?>
<svg id="Layer_2" xmlns="http://www.w3.org/2000/svg" viewBox="0 0 575.05 91.49">
  <defs>
    <style>
      .cls-1FullLogo {
        fill: #5c8fff;
      }

      .cls-2FullLogo {
        fill: #fefefe;
      }
    </style>
  </defs>
  <g id="Layer_1-2" data-name="Layer_1">
    <path className="cls-1FullLogo" d="M573.44,57.51h-19.31v-17.66c0-.56-.02-1.11-.05-1.65V15.04l-17.19.04v31.55h.05v1.14h-.03l-.02,9.64h-11.34c-6.07,0-11-5.39-11-12.03l.02-12.81h0l-.05-17.49h-17.23l.05,34.63c0,2.72.38,5.34,1.08,7.8h-6.69v-16.79c0-14.14-11.47-25.59-25.6-25.59h-35.24v.21h-.63l.06-.2h0s-18.54,0-18.54,0l-8.88,37.47-9.01-37.47h-18.41l-9.01,37.47-8.88-37.47h-18.54l12.82,42.38h-33.07v18.45h56.67l9.13-31.72,9.27,31.72h18.02l12.76-42.17h6.22v16.59h0c0,3.27.62,6.38,1.73,9.26.24.62.5,1.24.79,1.84.36.75.75,1.47,1.18,2.17.28.45.57.89.87,1.33.27.39.55.77.84,1.14.65.83,1.34,1.62,2.08,2.36.74.74,1.53,1.43,2.36,2.08.28.22.56.43.84.63.67.48,1.36.93,2.08,1.34.56.33,1.13.64,1.72.92.37.18.75.35,1.13.51,1.53.65,3.14,1.15,4.8,1.49.83.17,1.68.3,2.54.39s1.73.13,2.62.13h12.18s4.62,0,4.62,0v7.77h18.46v-7.77h45.17v15.54h17.22v-15.54h20.92v-18.45h-1.61ZM461.14,57.51c-2.28,0-4.4-.66-6.21-1.78-1.41-.88-2.63-2.04-3.56-3.41-1.27-1.88-2.01-4.15-2.01-6.59v-12.14h12.15c6.51,0,11.78,5.27,11.78,11.78v12.15h-12.15Z"/>
    <path className="cls-1FullLogo" d="M75.97,40.94v50.56h-18.33v-45.94c0-6.47-5.24-11.71-11.71-11.71H0V15.51h50.54c14.04,0,25.43,11.39,25.43,25.43Z"/>
    <g>
      <path className="cls-2FullLogo" d="M150.56,15.12l-8.88,37.47-9.01-37.47h-18.41l-9.01,37.47-8.88-37.47h-18.54l12.79,42.28.06.21h-45.14c-6.47,0-11.71-5.24-11.71-11.71V0H15.52v50.53c0,14.04,11.39,25.43,25.43,25.43h55.3s18.02,0,18.02,0l9.14-31.72,9.27,31.72h18.02l18.41-60.83h-18.54Z"/>
      <rect className="cls-2FullLogo" x="173.59" y="15.33" width="17.1" height="15.16"/>
      <rect className="cls-2FullLogo" x="173.59" y="37.54" width="17.1" height="38.42"/>
      <rect className="cls-2FullLogo" x="196.15" y="15.33" width="17.23" height="60.63"/>
      <path className="cls-2FullLogo" d="M331.99,38.13V15.3h-17.19v31.33h.05v1.14h-.03l.08,9.64h-11.34c-6.07,0-11-5.39-11-12.03l-.08-12.81h0l-.05-17.27h-33.3s-.24,0-.24,0l-22.48,27.55V15.3h-17.23v60.71h17.23v-27.94l22.58,27.94h21.15l-24.67-30.55,9.52-11.71h10.25l.02,15.95c0,14.43,10.7,26.12,23.89,26.12h15.68v15.67h17.22v-51.65c0-.58-.02-1.15-.05-1.71Z"/>
    </g>
  </g>
</svg>