<?xml version="1.0" encoding="UTF-8"?>
<svg id="Layer_2" xmlns="http://www.w3.org/2000/svg" viewBox="0 0 471.01 183.44">
  <defs>
    <style>
      .cls-1HalfLogo {
        fill: #5c8fff;
      }

      .cls-2HalfLogo {
        fill: #fefefe;
      }
    </style>
  </defs>
  <g id="Layer_1-2" data-name="Layer_1">
    <path className="cls-1HalfLogo" d="M152.31,82.07v101.36h-36.76v-92.11c0-12.96-10.51-23.48-23.47-23.48H0V31.09h101.34c28.15,0,50.98,22.83,50.98,50.98Z"/>
    <path className="cls-2HalfLogo" d="M282.51,47.15l-15.34,64.74-15.56-64.74h-31.8l-15.57,64.74-15.34-64.74h-32.03l20.69,68.37h-86.2c-12.96,0-23.48-10.5-23.48-23.47V0H31.12v101.31c0,28.16,22.83,50.98,50.98,50.98h122.34v-.02h15.36l15.78-54.81,16.02,54.81h31.13l22.8-75.35,6.56-21.68,2.45-8.08h0s-32.03,0-32.03,0Z"/>
    <polygon className="cls-1HalfLogo" points="471.01 115.71 471.01 152.11 377.33 152.11 361.31 97.3 345.52 152.11 314.39 152.11 304.74 120.23 282.58 47 314.62 47 329.96 111.74 345.52 47 377.33 47 392.89 111.74 408.22 47 440.26 47 440.26 47.01 437.81 55.09 431.25 76.77 419.47 115.71 471.01 115.71"/>
  </g>
</svg>