<?xml version="1.0" encoding="UTF-8"?>
<svg id="Layer_2" xmlns="http://www.w3.org/2000/svg" viewBox="0 0 470.95 183.44">
  <defs>
    <style>
      .cls-1HalfLogo {
        fill: #5c8fff;
      }

      .cls-2HalfLogo {
        fill: #d2d6db;
      }
    </style>
  </defs>
  <g id="Layer_1-2" data-name="Layer_1">
    <g>
      <g>
        <path className="cls-2HalfLogo" d="M152.31,82.07v101.36h-36.76v-92.11c0-12.96-10.51-23.48-23.47-23.48H0V31.09h101.34c28.15,0,50.98,22.83,50.98,50.98Z"/>
        <path className="cls-1HalfLogo" d="M204.44,115.52v36.76h-122.34c-28.16,0-50.98-22.82-50.98-50.98V0h36.76v92.05c0,12.96,10.51,23.47,23.48,23.47h113.09Z"/>
      </g>
      <path className="cls-1HalfLogo" d="M282.51,47.17l-15.34,64.74-15.56-64.74h-31.8l-15.57,64.74-15.34-64.74h-32.03l22.16,73.23,9.64,31.88h31.13l15.78-54.81,16.02,54.81h31.13l22.8-75.35,6.56-21.68,2.45-8.08h0s-32.03,0-32.03,0Z"/>
      <path className="cls-2HalfLogo" d="M408.16,47.17l-15.34,64.74-15.56-64.74h-31.8l-15.57,64.74-15.34-64.74h-32.03l22.16,73.23,9.64,31.88h31.13l15.78-54.81,16.02,54.81h31.13l22.8-75.35,6.56-21.68,2.45-8.08h0s-32.03,0-32.03,0Z"/>
      <rect className="cls-2HalfLogo" x="405.47" y="115.88" width="65.47" height="36.4"/>
    </g>
  </g>
</svg>