<?xml version="1.0" encoding="UTF-8"?>
<svg id="Layer_2" xmlns="http://www.w3.org/2000/svg" viewBox="0 0 113.8 113.79">
  <defs>
    <style>
      .cls-1X {
        fill: #fff;
      }
    </style>
  </defs>
  <g id="Layer_1-2" data-name="Layer_1">
    <g>
      <path className="cls-1X" d="M81.61,8c13.34,0,24.19,10.85,24.19,24.18v49.43c0,13.33-10.85,24.18-24.19,24.18h-49.42c-13.34,0-24.19-10.85-24.19-24.18v-49.43c0-13.33,10.85-24.18,24.19-24.18h49.42M81.61,0h-49.42C14.41,0,0,14.41,0,32.18v49.43c0,17.77,14.41,32.18,32.19,32.18h49.42c17.78,0,32.19-14.41,32.19-32.18v-49.43C113.8,14.41,99.39,0,81.61,0h0Z"/>
      <polygon className="cls-1X" points="54.11 57.24 58.76 62.8 31.12 91.5 21.1 91.5 54.11 57.24"/>
      <polygon className="cls-1X" points="96.31 23.82 62.89 58.55 58.16 52.91 86.17 23.82 96.31 23.82"/>
      <path className="cls-1X" d="M38.68,29.95l19.48,23.26,4.48,5.34,22.83,27.26h-7.25l-19.46-23.23-4.47-5.34-22.86-27.29h7.25M41.48,23.95h-22.9l8.25,9.85,22.86,27.29,4.47,5.34,19.46,23.23,1.8,2.15h22.9l-8.25-9.85-22.83-27.26-4.48-5.34-19.48-23.26-1.8-2.15h0Z"/>
    </g>
  </g>
</svg>