<?xml version="1.0" encoding="UTF-8"?>
<svg id="Layer_2" xmlns="http://www.w3.org/2000/svg" viewBox="0 0 93.31 47.1">
  <defs>
    <style>
      .cls-1Meter {
        fill: #21b45f;
      }

      .cls-2Meter {
        fill: #096131;
      }
    </style>
  </defs>
  <g id="Layer_1-2" data-name="Layer_1">
    <g>
      <path className="cls-1Meter" d="M10.63,16.95l16.76,12.93c4.18-4.84,10.18-8.08,16.93-8.69V0C30.76.66,18.73,7.12,10.63,16.95ZM85.2,20.3l-16.79,12.95c2.39,3.88,3.76,8.45,3.76,13.34,0,.17,0,.34,0,.51h21.14c.01-.17.01-.34.01-.51,0-9.75-2.99-18.8-8.11-26.29ZM48.99,0v21.19c6.76.61,12.75,3.85,16.94,8.69l16.75-12.93C74.59,7.12,62.55.67,48.99,0ZM24.9,33.25l-16.79-12.95C2.99,27.79,0,36.84,0,46.59c0,.17,0,.34.01.51h21.14c-.01-.17-.01-.34-.01-.51,0-4.89,1.38-9.46,3.76-13.34Z"/>
      <g>
        <path className="cls-2Meter" d="M50.92,37.8c-1.12-1.47-2.78-2.26-4.41-2.27h-.02c-1.02,0-2.03.3-2.89.95-2.23,1.68-2.57,4.99-.76,7.4,1.46,1.94,3.89,2.7,5.94,2.03.48-.16.94-.39,1.37-.71,2.23-1.68,2.58-4.99.77-7.4ZM47.95,44.19c-.18.04-.37.05-.56.05-1.98,0-3.58-1.6-3.58-3.58,0-1.55.99-2.87,2.37-3.37.38-.14.78-.21,1.21-.21,1.98,0,3.58,1.6,3.58,3.58,0,1.79-1.31,3.27-3.02,3.53Z"/>
        <path className="cls-2Meter" d="M86.13,33.83l-37.04,12.07c-.1.03-.21.04-.31.01-.24-.03-.45-.21-.51-.46l-.32-1.26c1.71-.26,3.02-1.74,3.02-3.53,0-1.98-1.6-3.58-3.58-3.58-.43,0-.83.07-1.21.21l-.25-.97c-.1-.37.17-.75.56-.79h.02l39.37-2.95c.76-.05.97,1.02.25,1.25Z"/>
      </g>
    </g>
  </g>
</svg>