<?xml version="1.0" encoding="UTF-8"?>
<svg id="Layer_2" xmlns="http://www.w3.org/2000/svg" viewBox="0 0 95.51 73.84">
  <defs>
    <style>
      .cls-1Palette {
        fill: #21b45f;
      }

      .cls-2Palette {
        fill: #0c6132;
      }
    </style>
  </defs>
  <g id="Layer_1-2" data-name="Layer_1">
    <g>
      <path className="cls-1Palette" d="M93.67,26.06c-6.27-13.44-22.05-21.56-35.83-24.52C30.56-4.32,4.98,7.06.7,26.96c-6.21,28.95,30.51,49.47,54.84,46.61,4.86-.57,10.21-2.08,12.64-6.33,1.17-2.05,1.49-4.49,2.46-6.64,3.92-8.65,16.41-9.78,22.05-17.35.12-.16.23-.32.35-.48,3.28-4.82,3.1-11.42.63-16.71ZM52.88,67.64c-4.74,0-8.59-3.27-8.59-7.3,0-.3.02-.59.06-.87.51-3.61,4.14-6.42,8.53-6.42s8.02,2.81,8.53,6.42c.04.28.06.57.06.87,0,4.03-3.84,7.3-8.59,7.3Z"/>
      <path className="cls-2Palette" d="M65.93,20.32c.87.83,1.96,1.37,3.13,1.71.59.17,1.2.3,1.81.38,1.55.22,3.3.17,4.43-.91,3.57-3.42-.49-7.87-4.06-8.64-4.38-.95-9.58,3.35-5.3,7.47Z"/>
      <path className="cls-2Palette" d="M21.35,46.79c.19-1.19,0-2.39-.39-3.54-.2-.59-.45-1.16-.73-1.7-.71-1.39-1.76-2.8-3.29-3.1-4.85-.96-6.17,4.91-4.75,8.29,1.73,4.13,8.24,5.93,9.16.06Z"/>
      <path className="cls-2Palette" d="M45.57,17.04c1.33.86,2.87,1.28,4.46,1.43.81.08,1.63.08,2.44.04,2.05-.1,4.3-.6,5.49-2.28,3.75-5.3-2.58-10.04-7.39-10.15-5.89-.14-11.55,6.7-4.99,10.96Z"/>
      <path className="cls-2Palette" d="M26.67,19.08c1.55.31,3.14.13,4.67-.31.78-.23,1.55-.52,2.28-.85,1.87-.85,3.78-2.14,4.27-4.14,1.54-6.31-6.09-8.39-10.61-6.73-5.53,2.03-8.27,10.48-.61,12.03Z"/>
      <path className="cls-2Palette" d="M17.08,32.39c1.32-.87,2.33-2.12,3.1-3.51.39-.71.73-1.46,1.02-2.21.73-1.92,1.17-4.18.12-5.94-3.35-5.57-10.23-1.67-12.27,2.69-2.49,5.34,1.5,13.27,8.03,8.97Z"/>
    </g>
  </g>
</svg>