<?xml version="1.0" encoding="UTF-8"?>
<svg id="Layer_2" xmlns="http://www.w3.org/2000/svg" viewBox="0 0 74.19 74.19">
  <defs>
    <style>
      .cls-1Puzzle {
        fill: #21b45f;
      }
    </style>
  </defs>
  <g id="Layer_1-2" data-name="Layer_1">
    <path classname="cls-1Puzzle" d="M73,37.69l-8.43,9.97c-.66-1.24-1.56-2.38-2.7-3.34-2.14-1.81-4.76-2.7-7.36-2.7-3.24,0-6.45,1.37-8.71,4.04-4.07,4.81-3.46,12,1.34,16.07,1.14.96,2.41,1.66,3.74,2.11l-7.25,8.57c-1.8,2.13-4.99,2.39-7.12.59l-8.77-7.41c-.39.76-.87,1.48-1.44,2.16-2.29,2.7-5.55,4.09-8.83,4.09-2.63,0-5.28-.9-7.45-2.73-4.87-4.12-5.48-11.41-1.36-16.28.58-.68,1.21-1.27,1.89-1.79l-8.76-7.41c-2.13-1.8-2.4-4.99-.6-7.12l7.04-8.32c.59.9,1.32,1.74,2.19,2.47,2.14,1.81,4.76,2.7,7.36,2.7,3.24,0,6.45-1.37,8.71-4.04,1.81-2.14,2.7-4.76,2.7-7.36,0-3.24-1.37-6.45-4.04-8.71-.87-.73-1.81-1.31-2.8-1.75L30.57,1.79c1.8-2.13,4.98-2.39,7.11-.59l8.86,7.5c.43-.93.99-1.82,1.68-2.64,2.29-2.7,5.55-4.09,8.83-4.09,2.63,0,5.28.9,7.45,2.73,2.7,2.29,4.09,5.55,4.09,8.83,0,2.63-.9,5.28-2.73,7.45-.69.82-1.48,1.52-2.32,2.09l8.86,7.5c2.13,1.8,2.4,4.99.6,7.12Z"/>
  </g>
</svg>