<?xml version="1.0" encoding="UTF-8"?>
<svg id="Layer_2" xmlns="http://www.w3.org/2000/svg" viewBox="0 0 52.29 86.85">
  <defs>
    <style>
      .cls-1Ribbon {
        fill: #21b45f;
      }

      .cls-2Ribbon {
        fill: #0c6132;
      }
    </style>
  </defs>
  <g id="Layer_1-2" data-name="Layer_1">
    <g>
      <polygon className="cls-2Ribbon" points="15.25 86.85 0 61.12 12.56 28.58 34.48 37.03 15.25 86.85"/>
      <polygon className="cls-2Ribbon" points="37.04 86.85 52.29 61.12 39.73 28.58 17.81 37.03 37.04 86.85"/>
      <rect className="cls-2Ribbon" x="14.49" y="3.11" width="10.44" height="8.89" transform="translate(-1.37 8.63) rotate(-23.9)"/>
      <rect className="cls-2Ribbon" x="28.43" y="2.77" width="10.44" height="8.89" transform="translate(4.85 -11.63) rotate(21.1)"/>
      <rect className="cls-2Ribbon" x="38.53" y="12.39" width="10.44" height="8.89" transform="translate(41.42 -29.99) rotate(66.1)"/>
      <rect className="cls-2Ribbon" x="38.87" y="26.33" width="10.44" height="8.89" transform="translate(88.68 .72) rotate(111.1)"/>
      <rect className="cls-2Ribbon" x="29.26" y="36.43" width="10.44" height="8.89" transform="translate(82.56 64.28) rotate(156.1)"/>
      <rect className="cls-2Ribbon" x="15.31" y="36.77" width="10.44" height="8.89" transform="translate(24.85 87.07) rotate(-158.9)"/>
      <rect className="cls-2Ribbon" x="5.21" y="27.15" width="10.44" height="8.89" transform="translate(-14.23 53.94) rotate(-113.9)"/>
      <rect className="cls-2Ribbon" x="4.87" y="13.21" width="10.44" height="8.89" transform="translate(-10.02 20.72) rotate(-68.9)"/>
      <rect className="cls-1Ribbon" x="21.87" width="10.44" height="10.44"/>
      <rect className="cls-1Ribbon" x="35.3" y="5.56" width="10.44" height="10.44" transform="translate(19.5 -25.5) rotate(45)"/>
      <rect className="cls-1Ribbon" x="40.87" y="19" width="10.44" height="10.44" transform="translate(70.31 -21.87) rotate(90)"/>
      <rect className="cls-1Ribbon" x="35.3" y="32.43" width="10.44" height="10.44" transform="translate(95.81 35.62) rotate(135)"/>
      <rect className="cls-1Ribbon" x="21.87" y="37.99" width="10.44" height="10.44" transform="translate(54.19 86.43) rotate(180)"/>
      <rect className="cls-1Ribbon" x="8.44" y="32.43" width="10.44" height="10.44" transform="translate(-3.3 73.93) rotate(-135)"/>
      <rect className="cls-1Ribbon" x="2.87" y="19" width="10.44" height="10.44" transform="translate(-16.12 32.31) rotate(-90)"/>
      <rect className="cls-1Ribbon" x="8.44" y="5.56" width="10.44" height="10.44" transform="translate(-3.63 12.82) rotate(-45)"/>
      <circle className="cls-2Ribbon" cx="27.09" cy="24.22" r="14.91"/>
    </g>
  </g>
</svg>