<?xml version="1.0" encoding="UTF-8"?>
<svg id="Layer_2" xmlns="http://www.w3.org/2000/svg" viewBox="0 0 113.61 89.43">
  <defs>
    <style>
      .cls-1Chat {
        fill: #eca653;
      }
    </style>
  </defs>
  <g id="Layer_1-2" data-name="Layer_1">
    <g>
      <path className="cls-1Chat" d="M113.12,50.03c3.24-19.01-10.08-36.44-26.6-44.38s-35.94-7.39-52.29,1.1C18.58,14.88,3.54,31,.45,48.85c-1.4,8.07.34,16.44,7,21.73s16.31,5.81,24.65,5.33c13.19-.75,26.38-2.35,39.54-3.55,3.34-.3,6.92-.97,10.18.11,3.07,1.02,6.03,3.33,8.75,5,6.27,3.86,12.53,7.73,18.8,11.59,1.91,1.18,4.18-.76,3.67-2.82-2.91-11.73-2.93-23.62-.05-35.36.77-3.12-4.05-4.46-4.82-1.33-3.09,12.59-3.07,25.43.05,38.02l3.67-2.82c-8.58-5.29-17.07-11.49-26.12-15.96-7.67-3.79-17.48-1.13-25.62-.38-9.8.89-19.63,2.15-29.47,2.57-7.51.32-16.76-.02-22.1-6.15-6.6-7.59-3.15-19.09,1.07-26.92,3.9-7.22,9.15-13.66,15.39-18.98C38.02,7.87,55.46,2.38,72.32,6.03c19.01,4.11,39.64,21.16,35.98,42.67-.54,3.15,4.28,4.5,4.82,1.33h0Z"/>
      <path className="cls-1Chat" d="M32.48,40.4l-1.49,1.99c-.46.62-.41,1.56-.13,2.22.31.74.86,1.19,1.62,1.45,1.07.37,2.27.54,3.38.22,1.65-.46,2.97-2.22,2.46-3.96-.35-1.18-1.35-2.17-2.56-2.46-1.85-.44-3.64.85-3.63,2.8,0,1.31,1.15,2.56,2.5,2.5s2.5-1.1,2.5-2.5c0,1.32-1.44,2.33-2.66,2.03.23.07.11.02-.36-.16.21.12.11.04-.28-.24.05.04.09.08.13.13-.23-.23-.39-.5-.47-.81-.08-.34-.08-.67,0-1.01.56-.8.7-1.06.43-.79-.14.13-.06.07.25-.2.41-.15.49-.19.24-.12.45-.05.54-.06.27-.04-.09,0-.19,0-.28,0,.43.07.51.08.24.03-.1-.02-.19-.04-.28-.07-.18-.05-.36-.11-.54-.17l1.49,3.67,1.49-1.99c.36-.49.41-1.37.25-1.93s-.61-1.21-1.15-1.49c-1.31-.69-2.58-.23-3.42.9h0Z"/>
      <path className="cls-1Chat" d="M55.85,41.39s-.05.08-.08.11l.39-.51s-.06.06-.09.09l.51-.39c-.05.04-.11.07-.17.1l.6-.25c-.08.03-.17.06-.26.07l.66-.09c-.09,0-.18,0-.27,0l.66.09c-.12-.02-.22-.05-.33-.09l.6.25c-.08-.04-.16-.09-.23-.14l.51.39c-.05-.04-.09-.09-.14-.14l.39.51c-.04-.06-.07-.11-.1-.17l.25.6c-.02-.07-.04-.12-.05-.19l.09.66s0-.09,0-.14l-.09.66c0-.07.02-.13.05-.19l-.25.6c.03-.06.06-.11.1-.17l-.39.51c.06-.07.12-.13.19-.18l-.51.39c.08-.05.15-.09.24-.13l-.6.25c.09-.03.17-.06.27-.07l-.66.09c.09-.01.18-.01.27,0l-.66-.09c.09.01.17.03.26.06l-.6-.25c.06.03.11.06.17.1l-.51-.39c.05.05.09.09.14.14l-.39-.51.04.06c.35.54.86.98,1.49,1.15s1.4.09,1.93-.25c1.1-.71,1.65-2.24.9-3.42-.82-1.3-2.34-1.88-3.83-1.48s-2.5,1.69-2.54,3.2,1.15,2.84,2.55,3.19c1.48.37,3.02-.18,3.83-1.5.68-1.12.28-2.8-.9-3.42s-2.69-.3-3.42.9h0Z"/>
      <path className="cls-1Chat" d="M78.55,45.17h.93c.64,0,1.31-.28,1.77-.73s.76-1.15.73-1.77-.24-1.32-.73-1.77-1.09-.73-1.77-.73h-.93c-.64,0-1.31.28-1.77.73s-.76,1.15-.73,1.77.24,1.32.73,1.77,1.09.73,1.77.73h0Z"/>
    </g>
  </g>
</svg>