<?xml version="1.0" encoding="UTF-8"?>
<svg id="Layer_2" xmlns="http://www.w3.org/2000/svg" viewBox="0 0 103.9 100.63">
  <defs>
    <style>
      .cls-1Cycle {
        fill: #cb5246;
      }
    </style>
  </defs>
  <g id="Layer_1-2" data-name="Layer_1">
    <g>
      <path className="cls-1Cycle" d="M16.25,73.5C.18,58.5,2.05,33.46,17.05,18.48S57.49-1,73.32,14.23c2.32,2.23,5.86-1.3,3.54-3.54C59.05-6.43,29.97-1.5,13.51,14.94c-16.86,16.84-18.84,45.25-.79,62.09,2.35,2.19,5.89-1.33,3.54-3.54h0Z"/>
      <path className="cls-1Cycle" d="M73.33,4.59l2.9,10.94,2.41-3.16c-4.5.49-8.98.51-13.48.04-3.2-.33-3.17,4.67,0,5,4.5.47,8.98.45,13.48-.04,1.6-.17,2.86-1.46,2.41-3.16l-2.9-10.94c-.82-3.11-5.65-1.79-4.82,1.33h0Z"/>
      <path className="cls-1Cycle" d="M88.86,28.44c13.76,15.7,13.54,39.69-1.19,54.66s-38.7,15.66-54.63,2.14c-2.44-2.07-5.99,1.45-3.54,3.54,17.96,15.24,45,14.89,61.7-2.14s16.77-43.96,1.19-61.73c-2.13-2.42-5.65,1.12-3.54,3.54h0Z"/>
      <path className="cls-1Cycle" d="M27.06,87.36l3.03,11.49c.82,3.11,5.64,1.79,4.82-1.33-1.01-3.83-2.02-7.66-3.03-11.49-.82-3.11-5.64-1.79-4.82,1.33h0Z"/>
      <path className="cls-1Cycle" d="M29.73,88.66c4.27-.95,8.62-1.49,12.95-2.14,3.17-.48,1.82-5.29-1.33-4.82-4.32.65-8.68,1.19-12.95,2.14-3.14.7-1.81,5.52,1.33,4.82h0Z"/>
      <path className="cls-1Cycle" d="M19.81,80.94c.01.27.03.55.11.81.04.12.1.25.15.36.03.07.09.25.15.35.02.03.04.06.06.09.12.17.27.39.42.54.18.19.41.36.62.49.14.09.27.13.43.2s.29.14.46.17c.25.05.53.1.79.09.19,0,.54-.05.73-.1.03,0,.07-.02.1-.03.33-.08.61-.23.85-.45.27-.18.49-.41.64-.7.18-.29.28-.6.3-.93.07-.33.06-.66-.04-1-.2-.6-.57-1.19-1.15-1.49l-.6-.25c-.44-.12-.89-.12-1.33,0-.04.02-.08.03-.12.04l.66-.09c-.06,0-.11,0-.17,0l.66.09c-.06,0-.11-.02-.16-.04l.6.25c-.05-.02-.1-.05-.15-.08l.51.39s-.08-.07-.12-.12l.39.51s-.06-.09-.09-.14l.25.6s-.03-.08-.04-.12l.09.66s0-.06,0-.08c-.03-.66-.26-1.29-.73-1.77-.23-.24-.49-.42-.8-.52-.3-.16-.62-.23-.96-.22-.65.03-1.32.24-1.77.73s-.76,1.1-.73,1.77h0Z"/>
      <path className="cls-1Cycle" d="M81.45,20.35c.01.27.03.55.11.81.04.12.1.25.15.36.03.07.09.25.15.35.02.03.04.06.06.09.12.17.27.39.42.54.18.19.41.36.62.49.14.09.27.13.43.2s.29.14.46.17c.25.05.53.1.79.09.19,0,.54-.05.73-.1.03,0,.07-.02.1-.03.33-.08.61-.23.85-.45.27-.18.49-.41.64-.7.18-.29.28-.6.3-.93.07-.33.06-.66-.04-1-.2-.6-.57-1.19-1.15-1.49l-.6-.25c-.44-.12-.89-.12-1.33,0-.04.02-.08.03-.12.04l.66-.09c-.06,0-.11,0-.17,0l.66.09c-.06,0-.11-.02-.16-.04l.6.25c-.05-.02-.1-.05-.15-.08l.51.39s-.08-.07-.12-.12l.39.51s-.06-.09-.09-.14l.25.6s-.03-.08-.04-.12l.09.66s0-.06,0-.08c-.03-.66-.26-1.3-.73-1.77-.23-.24-.49-.42-.8-.52-.3-.16-.62-.23-.96-.22-.65.03-1.32.24-1.77.73s-.76,1.1-.73,1.77h0Z"/>
    </g>
  </g>
</svg>