<?xml version="1.0" encoding="UTF-8"?>
<svg id="Layer_2" xmlns="http://www.w3.org/2000/svg" viewBox="0 0 139.2 126.01">
  <defs>
    <style>
      .cls-1MoneyGraph {
        fill: #8cac48;
      }
    </style>
  </defs>
  <g id="Layer_1-2" data-name="Layer_1">
    <g>
      <path className="cls-1MoneyGraph" d="M119.22,19.12c.58,1.55,1.16,3.09,1.74,4.64.47,1.26,1.69,2.13,3.08,1.75,1.21-.33,2.22-1.8,1.75-3.08-.58-1.55-1.16-3.09-1.74-4.64-.47-1.26-1.69-2.13-3.08-1.75-1.21.33-2.22,1.8-1.75,3.08h0Z"/>
      <path className="cls-1MoneyGraph" d="M129.05,46.57c.23,2.45.93,4.72,2.18,6.84,1.63,2.77,5.95.26,4.32-2.52-.78-1.33-1.35-2.77-1.49-4.32-.13-1.34-1.06-2.5-2.5-2.5-1.25,0-2.63,1.15-2.5,2.5h0Z"/>
      <g>
        <path className="cls-1MoneyGraph" d="M23.19,118.19c.03-3.83.41-7.57,1.35-11.29.81-3.19,1.88-8.19,4.16-10.61.28-1.54,1.1-1.97,2.47-1.27l1.23,1.65c.88,1.36,1.51,2.88,2.14,4.37.98,2.32,1.81,4.76,3.12,6.92,2.02,3.33,5.11,6.71,9.34,5.18,5.13-1.85,8.82-8.64,11.12-13.17,2.78-5.48,4.66-11.51,7.87-16.76,3.89-6.35,10.61-4.43,16.46-7.56,10.65-5.71,15.98-19.37,19.71-30.11.84-2.42-2.49-4.13-4.18-2.43-3.59,3.61-7.18,7.21-10.76,10.82l3.54,3.54c3.37-3.75,7.01-7.15,10.98-10.26l-4.18-1.1c.6,2.83,1.2,5.65,1.8,8.48.67,3.15,5.49,1.81,4.82-1.33-.6-2.83-1.2-5.65-1.8-8.48-.43-2.03-2.82-2.16-4.18-1.1-3.97,3.11-7.61,6.51-10.98,10.26-2.14,2.38,1.25,5.83,3.54,3.54,3.59-3.61,7.18-7.21,10.76-10.82l-4.18-2.43c-2.46,7.08-5.49,14.33-10.02,20.37-2.14,2.85-4.75,5.57-8.03,7.1-2.96,1.38-6.17,1.14-9.26,1.96-5.14,1.37-7.92,5.87-10.11,10.35-2.84,5.81-4.94,11.98-8.38,17.48-1.4,2.24-4.77,7.97-7.93,6.16-2.43-1.39-3.81-6.88-4.8-9.22-1.42-3.33-3.92-8.85-8.09-9.42-4.83-.66-7.15,6.01-8.6,9.43-2.67,6.29-3.89,12.95-3.95,19.76-.03,3.22,4.97,3.22,5,0h0Z"/>
        <path className="cls-1MoneyGraph" d="M14.74,125.15c3.19-1.71,8.03-2.12,11.54-2.95,4.1-.97,8.2-1.91,12.3-2.84,7.9-1.78,15.81-3.49,23.73-5.12,16.17-3.34,32.41-6.35,48.69-9.09,3.17-.53,1.82-5.35-1.33-4.82-16.92,2.84-33.79,5.99-50.59,9.48-8.24,1.71-16.47,3.5-24.67,5.38-4.1.94-8.2,1.89-12.3,2.87-3.23.77-6.95,1.2-9.9,2.78s-.31,5.84,2.52,4.32h0Z"/>
        <path className="cls-1MoneyGraph" d="M9.93,123.22l.14.98,4.82-1.33c-6.71-29.83-10.01-60.25-9.88-90.82.01-3.22-4.99-3.22-5,0-.13,31.01,3.25,61.9,10.06,92.15.72,3.22,5.25,1.76,4.82-1.33l-.14-.98c-.44-3.17-5.26-1.82-4.82,1.33h0Z"/>
        <path className="cls-1MoneyGraph" d="M24.52,121.09l-1.2.54-2.41-3.16c-.13.95-.26,1.9-.39,2.84-.09.7-.12,1.29.25,1.93.3.52.9,1.01,1.49,1.15,1.17.27,2.89-.36,3.08-1.75.13-.95.26-1.9.39-2.84.11-.83.08-1.49-.45-2.18-.48-.62-1.17-.98-1.96-.99-.95,0-1.61.36-2.33.93-.47.37-.73,1.2-.73,1.77,0,.61.27,1.35.73,1.77,1.1,1.01,2.43.86,3.54,0h0Z"/>
        <path className="cls-1MoneyGraph" d="M38.94,114.74c-.02,1.31.18,2.65.62,3.89s1.73,2.18,3.08,1.75c1.22-.39,2.21-1.75,1.75-3.08-.17-.49-.27-.97-.4-1.47-.03-.18-.03-.15,0,.08-.01-.12-.02-.23-.03-.35-.02-.27-.02-.55-.02-.82.02-1.31-1.16-2.56-2.5-2.5s-2.48,1.1-2.5,2.5h0Z"/>
        <path className="cls-1MoneyGraph" d="M65.65,112.34c.76-.34,1.24-1.2,1.34-1.99.12-.88-.14-1.65-.76-2.31-1.25-1.31-3.79-.74-4.18,1.1-.25,1.16-.25,2.28.04,3.43.32,1.27,1.81,2.16,3.08,1.75s2.09-1.72,1.75-3.08c-.05-.2-.09-.39-.12-.6l.09.66c-.04-.36-.04-.7,0-1.06l-.09.66c.02-.15.05-.3.08-.45l-4.18,1.1.05.06-.64-1.1.02.07-.09-.66v.08c.03-.22.06-.44.09-.66l-.03.07.64-1.1.39-.3c-.54.24-1,.95-1.15,1.49-.16.6-.09,1.4.25,1.93s.86,1,1.49,1.15c.69.16,1.28.04,1.93-.25h0Z"/>
        <path className="cls-1MoneyGraph" d="M80.69,106.68c.21,1.13.61,2.2,1.12,3.24.57,1.18,2.35,1.59,3.42.9,1.21-.78,1.51-2.16.9-3.42-.06-.11-.11-.22-.16-.34.13.31.14.34.04.08-.06-.18-.13-.35-.18-.53-.13-.41-.23-.84-.31-1.26-.23-1.29-1.87-2.14-3.08-1.75-1.38.45-2,1.69-1.75,3.08h0Z"/>
        <path className="cls-1MoneyGraph" d="M100.45,102.58c.07,1.53.44,2.93,1.12,4.3.58,1.17,2.34,1.59,3.42.9,1.2-.77,1.52-2.16.9-3.42-.09-.18-.23-.58-.09-.17-.08-.23-.16-.47-.22-.7-.02-.07-.17-.73-.1-.39s-.03-.42-.03-.51c-.06-1.3-1.11-2.56-2.5-2.5-1.31.06-2.56,1.1-2.5,2.5h0Z"/>
        <path className="cls-1MoneyGraph" d="M132.94,23.32c-3.95-2.6-8.92-3.07-13.28-1.18-3.75,1.62-8.16,5.81-6.58,10.33,1.76,5.01,7.84,4.51,12.12,4.52,2.82,0,12.7-.65,7.77,5.15-2.7,3.17-7.53,2.97-11.27,2.8-3.22-.14-3.21,4.86,0,5,5.27.24,10.96-.18,14.81-4.26,2.7-2.86,3.8-7.54,1.28-10.85-3.08-4.06-9.89-2.81-14.25-2.84-1.22,0-4.41.41-5.2-.53-1.51-1.79,1.68-3.93,2.81-4.52,3.02-1.58,6.5-1.1,9.26.72s5.2-2.55,2.52-4.32h0Z"/>
        <path className="cls-1MoneyGraph" d="M79.36,3.18l1.22,3.26c.46,1.22,1.71,2.19,3.08,1.75,1.19-.39,2.24-1.76,1.75-3.08l-1.22-3.26c-.46-1.22-1.71-2.19-3.08-1.75-1.19.39-2.24,1.76-1.75,3.08h0Z"/>
        <path className="cls-1MoneyGraph" d="M90.08,5.29c-2.99-1.97-6.79-2.28-10.07-.83-2.96,1.31-6.15,4.57-4.96,8.09,1.33,3.93,5.84,3.71,9.22,3.72,1.45,0,7.43-.74,4.92,2.34-1.7,2.09-5,1.85-7.38,1.75-3.22-.14-3.21,4.86,0,5,3.9.17,8.07-.21,10.92-3.21,2.17-2.29,2.97-6.06.9-8.67-2.39-3.02-7.17-2.19-10.53-2.21-.48,0-3.18.17-3.27-.27-.12-.63,1.55-1.67,1.97-1.89,1.9-.98,4.02-.63,5.75.5,2.69,1.78,5.2-2.55,2.52-4.32h0Z"/>
        <path className="cls-1MoneyGraph" d="M86.24,22.25c.17,1.85.68,3.57,1.63,5.18.66,1.13,2.28,1.63,3.42.9s1.6-2.21.9-3.42c-.32-.55-.49-.88-.63-1.31-.09-.26-.16-.53-.22-.79-.03-.13-.06-.27-.08-.4.02.22.02.17-.01-.14-.12-1.3-1.06-2.56-2.5-2.5-1.25.06-2.63,1.11-2.5,2.5h0Z"/>
      </g>
    </g>
  </g>
</svg>