<?xml version="1.0" encoding="UTF-8"?>
<svg id="Layer_2" xmlns="http://www.w3.org/2000/svg" viewBox="0 0 121.91 97.75">
  <defs>
    <style>
      .cls-1Poeple {
        fill: #5a8cf9;
      }
    </style>
  </defs>
  <g id="Layer_1-2" data-name="Layer_1">
    <g>
      <path className="cls-1Poeple" d="M20.46,65.79c-2.67-2.32-5.12-4.85-5.49-8.51s1.37-7.39,3.17-10.48c2.97-5.09,7.43-9.12,13.4-10.16s12.33,1.8,15.03,7.55c3.42,7.27-.76,13.9-4.4,20.17-.68,1.17-.27,2.74.9,3.42,9.02,5.26,17.8,10.79,24.2,19.24,1.92,2.53,6.26.04,4.32-2.52-6.96-9.19-16.14-15.28-25.99-21.03l.9,3.42c4.91-8.48,8.95-16.55,4.02-25.96-3.61-6.89-11.38-10.3-18.98-9.3-8.31,1.09-14.62,6.75-18.43,13.96-4.72,8.92-3.89,17.02,3.83,23.74,2.42,2.1,5.97-1.42,3.54-3.54h0Z"/>
      <path className="cls-1Poeple" d="M16.53,66.11c-6.88,8.85-12.31,18.17-16.35,28.63-1.16,3,3.67,4.3,4.82,1.33,3.71-9.61,8.74-18.29,15.06-26.42,1.95-2.51-1.56-6.07-3.54-3.54h0Z"/>
      <path className="cls-1Poeple" d="M59.06,63.1c6.73-7.74,13.12-14.76,22.55-19.22,1.3-.61,1.42-2.29.9-3.42-4.76-10.25.34-25.19,13.47-24.68,4.46.17,8.83,3.08,10.77,7.09,2.93,6.04-.95,12.76-3.87,17.98-.68,1.22-.26,2.68.9,3.42,8.12,5.24,12.95,13.96,13.15,23.61.07,3.21,5.07,3.22,5,0-.24-11.47-6-21.72-15.62-27.93l.9,3.42c3.78-6.75,7.68-14.74,4.14-22.42-2.71-5.87-8.87-9.97-15.35-10.17s-13.13,3.5-16.85,8.93c-4.95,7.2-4.47,15.65-.93,23.28l.9-3.42c-9.8,4.63-16.56,11.94-23.56,20-2.1,2.42,1.42,5.97,3.54,3.54h0Z"/>
      <path className="cls-1Poeple" d="M54.93,7.48c-4.72-5.53-15.27-5.58-15.37,3.47-.04,3.54,1.76,7.01,4.46,9.24,3.1,2.56,7.31,3.71,9.95,6.83,2.08,2.46,5.6-1.09,3.54-3.54-2.76-3.26-6.95-4.39-10.17-7.03-1.54-1.27-3.38-3.95-2.74-6.13,1.12-3.81,5.24-1.12,6.79.7,2.09,2.45,5.61-1.1,3.54-3.54h0Z"/>
      <path className="cls-1Poeple" d="M56.75,12.12c.76-2.75,2.55-5.76,5.52-6.56,5.02-1.36,4.69,3.74,2.92,6.82-2.6,4.52-5.89,8.87-9.67,12.45-2.34,2.22,1.2,5.75,3.54,3.54,4.08-3.87,7.6-8.62,10.45-13.47,2.08-3.53,3.62-8.03.9-11.66-6.09-8.1-16.57.69-18.47,7.55-.86,3.11,3.96,4.43,4.82,1.33h0Z"/>
    </g>
  </g>
</svg>