<?xml version="1.0" encoding="UTF-8"?>
<svg id="Layer_2" xmlns="http://www.w3.org/2000/svg" viewBox="0 0 131.89 119.3">
  <defs>
    <style>
      .cls-1smile {
        fill: #5c60ce;
      }
    </style>
  </defs>
  <g id="Layer_1-2" data-name="Layer_1">
    <g>
      <path className="cls-1smile" d="M41.83,56.83c3.57-5.37,10.85-4.77,13.89.75,1.55,2.82,5.87.3,4.32-2.52-4.93-8.95-16.96-9.14-22.52-.75-1.78,2.69,2.54,5.2,4.32,2.52h0Z"/>
      <path className="cls-1smile" d="M76.96,56.83c3.57-5.37,10.85-4.77,13.89.75,1.55,2.82,5.87.3,4.32-2.52-4.93-8.95-16.96-9.14-22.52-.75-1.78,2.69,2.54,5.2,4.32,2.52h0Z"/>
      <path className="cls-1smile" d="M44.07,74.26c12.79,10.33,31.94,9.59,43.67-2.08,2.28-2.27-1.25-5.81-3.54-3.54-9.66,9.61-25.92,10.71-36.6,2.08-2.48-2-6.04,1.51-3.54,3.54h0Z"/>
      <path className="cls-1smile" d="M70.7,22.26c-11.82-5.7-31.59,1.16-39.84,10.6-6.89,7.87-10.05,19.81-10.81,30.02-.74,9.93,1.54,20.18,7.74,28.13,12.73,16.31,39.58,15.52,57.11,8.41,17.38-7.04,30.3-24.29,27.55-43.55-3.14-21.97-25.17-33.26-45.64-34.32-3.22-.17-3.21,4.83,0,5,14.85.77,33.74,7.9,39.15,23.24,5.66,16.06-2.1,33.08-16.28,41.68-7.78,4.72-16.85,6.94-25.89,7.34s-18.46-.16-25.86-5.06c-16.77-11.08-15.23-35.88-7.09-51.77,3.68-7.19,9.62-11.2,17.1-13.86,5.89-2.1,14.25-4.44,20.26-1.54,2.89,1.39,5.42-2.92,2.52-4.32h0Z"/>
      <path className="cls-1smile" d="M70.56,8.31V2.41c0-3.22-5-3.22-5,0v5.89c0,3.22,5,3.22,5,0h0Z"/>
      <path className="cls-1smile" d="M104.68,24.34l6.84-4.9c1.1-.79,1.62-2.18.9-3.42-.63-1.08-2.32-1.69-3.42-.9l-6.84,4.9c-1.1.79-1.62,2.18-.9,3.42.63,1.08,2.32,1.69,3.42.9h0Z"/>
      <path className="cls-1smile" d="M121.9,63.29h7.57c3.22,0,3.22-5,0-5h-7.57c-3.22,0-3.22,5,0,5h0Z"/>
      <path className="cls-1smile" d="M104.16,99.31l4.99,5.11c2.25,2.3,5.79-1.23,3.54-3.54l-4.99-5.11c-2.25-2.3-5.79,1.23-3.54,3.54h0Z"/>
      <path className="cls-1smile" d="M62.2,110.99v5.89c0,3.22,5,3.22,5,0v-5.89c0-3.22-5-3.22-5,0h0Z"/>
      <path className="cls-1smile" d="M21.73,96.85c-3.58,1.23-6.76,3.13-9.5,5.74-2.34,2.22,1.2,5.75,3.54,3.54,2.1-2,4.55-3.51,7.3-4.45,3.03-1.04,1.73-5.87-1.33-4.82h0Z"/>
      <path className="cls-1smile" d="M10.83,57.15H2.41c-3.22,0-3.22,5,0,5h8.42c3.22,0,3.22-5,0-5h0Z"/>
      <path className="cls-1smile" d="M30.67,20.51l-4.19-5.9c-.78-1.1-2.18-1.62-3.42-.9-1.09.64-1.68,2.31-.9,3.42l4.19,5.9c.78,1.1,2.18,1.62,3.42.9,1.09-.64,1.68-2.31.9-3.42h0Z"/>
    </g>
  </g>
</svg>