<?xml version="1.0" encoding="UTF-8"?>
<svg id="Layer_2" xmlns="http://www.w3.org/2000/svg" viewBox="0 0 137.45 85.43">
  <defs>
    <style>
      .cls-1Time {
        fill: #18b560;
      }
    </style>
  </defs>
  <g id="Layer_1-2" data-name="Layer_1">
    <g>
      <path className="cls-1Time" d="M82.65,18.2C70.94,6.4,54.66-1.82,37.72,1.58,19.75,5.19,5.37,22.2,1.09,39.49c-4.51,18.2,5.34,35.35,22.79,41.68,18.91,6.87,41.13,6.17,56.52-7.66,7.56-6.79,13.94-16.25,14.69-26.63.8-10.95-5.2-20.99-12.45-28.68-2.21-2.35-5.74,1.19-3.54,3.54,5.99,6.36,11.18,14.51,11.05,23.56-.12,8.33-4.87,16.1-10.48,21.95s-13.14,10.86-21.44,12.41c-9.14,1.71-18.72.14-27.7-1.81-16.67-3.61-28.46-18.1-24.99-35.47,3.05-15.25,15.15-30.68,30.33-35.19,16.07-4.77,32.04,3.28,43.22,14.54,2.27,2.29,5.81-1.25,3.54-3.54Z"/>
      <path className="cls-1Time" d="M60.39,84.47c24.88.16,49.77.32,74.65.48,2.97.02,3.2-3.95.66-4.91-8.99-3.4-18.14-6.21-27.48-8.45v4.82c8.24-1.42,16.48-2.84,24.73-4.26,2.38-.41,2.4-4.43,0-4.82-11.7-1.92-23.4-3.84-35.1-5.76v4.82c8.9-2.82,17.95-4.73,27.25-5.64,2.54-.25,3.68-4.5.66-4.91-11.3-1.53-22.64-2.72-34.02-3.53-3.21-.23-3.2,4.77,0,5,10.93.78,21.83,1.88,32.69,3.35l.66-4.91c-9.73.96-19.25,2.87-28.58,5.82-2.15.68-2.6,4.4,0,4.82,11.7,1.92,23.4,3.84,35.1,5.76v-4.82c-8.24,1.42-16.48,2.84-24.73,4.26-2.47.43-2.29,4.27,0,4.82,9.35,2.24,18.49,5.05,27.48,8.45l.66-4.91c-24.88-.16-49.77-.32-74.65-.48-3.22-.02-3.22,4.98,0,5h0Z"/>
      <path className="cls-1Time" d="M44.87,11.09v4.63c0,3.22,5,3.22,5,0v-4.63c0-3.22-5-3.22-5,0h0Z"/>
      <path className="cls-1Time" d="M9.99,47.82h3.67c1.31,0,2.56-1.15,2.5-2.5s-1.1-2.5-2.5-2.5h-3.67c-1.31,0-2.56,1.15-2.5,2.5s1.1,2.5,2.5,2.5h0Z"/>
      <path className="cls-1Time" d="M87.08,42.82h-4.91c-3.22,0-3.22,5,0,5h4.91c3.22,0,3.22-5,0-5h0Z"/>
      <path className="cls-1Time" d="M50.53,77.02c.36-1.64.5-3.3.32-4.96-.15-1.34-1.04-2.5-2.5-2.5-1.24,0-2.65,1.15-2.5,2.5s.12,2.48-.14,3.63c-.29,1.32.4,2.7,1.75,3.08,1.25.34,2.78-.42,3.08-1.75h0Z"/>
      <path className="cls-1Time" d="M45.38,28.9c-.56,5.59-.71,11.17-.45,16.77.15,3.2,5.15,3.22,5,0-.26-5.61-.11-11.19.45-16.77.32-3.2-4.68-3.18-5,0h0Z"/>
      <path className="cls-1Time" d="M46.09,48.94c4.33,1.84,8.72,3.36,13.3,4.47,3.13.76,4.46-4.06,1.33-4.82-4.13-1-8.19-2.3-12.1-3.97-2.93-1.25-5.48,3.06-2.52,4.32h0Z"/>
      <path className="cls-1Time" d="M76.86,4.86c1.57.24,2.31.67,3.32,1.83.89,1.02,2.63.91,3.54,0,1.01-1.01.89-2.51,0-3.54-1.4-1.61-3.4-2.79-5.53-3.12-1.33-.2-2.69.34-3.08,1.75-.33,1.18.4,2.87,1.75,3.08h0Z"/>
      <path className="cls-1Time" d="M85.1,13.8l2.22,2.85c.37.47,1.21.73,1.77.73.61,0,1.35-.27,1.77-.73,1.01-1.1.86-2.43,0-3.54l-2.22-2.85c-.37-.47-1.21-.73-1.77-.73-.61,0-1.35.27-1.77.73-1.01,1.1-.86,2.43,0,3.54h0Z"/>
      <path className="cls-1Time" d="M1.85,75.17l2.67,2.85c.9.96,2.64.97,3.54,0,.94-1.03.95-2.51,0-3.54-.89-.95-1.78-1.9-2.67-2.85s-2.64-.97-3.54,0c-.94,1.03-.95,2.51,0,3.54h0Z"/>
    </g>
  </g>
</svg>