<?xml version="1.0" encoding="UTF-8"?>
<svg id="Layer_2" xmlns="http://www.w3.org/2000/svg" xmlns:xlink="http://www.w3.org/1999/xlink" viewBox="0 0 874 793.96">
  <defs>
    <style>
      .cls-1 {
        font-size: 18px;
      }

      .cls-1, .cls-2 {
        fill: #606060;
        font-family: Gunterz-Bold, Gunterz;
        font-weight: 700;
      }

      .cls-2 {
        font-size: 48px;
      }

      .cls-3 {
        fill: #5c8fff;
      }

      .cls-4 {
        fill: #c4c4c4;
      }

      .cls-5 {
        fill: #d2d6db;
      }

      .cls-6 {
        clip-path: url(#clippath);
      }

      .cls-7 {
        fill: #e6e7e8;
      }

      .cls-8 {
        fill: #e8e8e8;
        filter: url(#drop-shadow-1);
      }
    </style>
    <clipPath id="clippath">
      <rect class="cls-4" x="11.25" y="8.78" width="851.55" height="785.18" rx="56.84" ry="56.84"/>
    </clipPath>
    <filter id="drop-shadow-1" filterUnits="userSpaceOnUse">
      <feOffset dx="1" dy="1"/>
      <feGaussianBlur result="blur" stdDeviation="3"/>
      <feFlood flood-color="#7f7f7f" flood-opacity=".17"/>
      <feComposite in2="blur" operator="in"/>
      <feComposite in="SourceGraphic"/>
    </filter>
  </defs>
  <g id="Layer_1-2" data-name="Layer_1">
    <g>
      <rect class="cls-4" x="11.25" y="8.78" width="851.55" height="785.18" rx="56.84" ry="56.84"/>
      <g class="cls-6">
        <rect class="cls-7" x="11.25" y="2.34" width="852.14" height="791.62"/>
        <rect class="cls-8" x="8.48" y="8.78" width="854.91" height="75.03"/>
      </g>
    </g>
    <rect class="cls-5" x="85.77" y="35.68" width="676.9" height="27.28" rx="13.64" ry="13.64"/>
    <rect class="cls-5" x="780" y="35.68" width="27.28" height="27.28" rx="13.64" ry="13.64"/>
    <text class="cls-2" transform="translate(253.91 238.42)"><tspan x="0" y="0">Get A Quote</tspan></text>
    <rect class="cls-5" x="207.38" y="286.55" width="220.52" height="45.47"/>
    <rect class="cls-5" x="446.15" y="286.55" width="220.52" height="45.47"/>
    <rect class="cls-5" x="207.38" y="352.48" width="220.52" height="45.47"/>
    <rect class="cls-5" x="205.49" y="416.91" width="461.19" height="109.89"/>
    <rect class="cls-3" x="341.15" y="556.31" width="191.76" height="51.54"/>
    <rect class="cls-5" x="444.98" y="352.48" width="220.52" height="45.47"/>
    <text class="cls-1" transform="translate(397.9 586.7)"><tspan x="0" y="0">submit</tspan></text>
  </g>
</svg>